<?xml version="1.0" encoding="UTF-8"?>
<svg version="1.1" xmlns="http://www.w3.org/2000/svg" width="2143" height="2143">
<path d="M0 0 C1.44195677 -0.00424107 1.44195677 -0.00424107 2.91304398 -0.00856781 C8.02357488 -0.02343122 13.13407861 -0.03273548 18.24462891 -0.03710938 C22.35279466 -0.0414439 26.46074443 -0.05515716 30.56884766 -0.078125 C67.99842782 -0.28281509 105.27237352 1.20879899 142.4765625 5.515625 C143.40062897 5.61950531 144.32469543 5.72338562 145.27676392 5.83041382 C219.06765465 14.13931393 291.55475705 30.0574596 362.1015625 53.203125 C362.7633551 53.41928467 363.42514771 53.63544434 364.10699463 53.8581543 C409.43089262 68.67258447 453.34879544 87.12295002 496.1015625 108.203125 C497.43217712 108.85570236 498.76291263 109.50803328 500.09375 110.16015625 C517.08857125 118.49606799 533.89792044 127.01243951 550.25732422 136.55224609 C553.33146419 138.33656665 556.42018776 140.09365172 559.51171875 141.84765625 C597.92190794 163.69806898 634.78058747 188.5438907 669.81640625 215.45703125 C672.66136713 217.63087316 675.53479537 219.76247104 678.4140625 221.890625 C685.19459687 226.95665282 691.72296751 232.33108633 698.26513672 237.69873047 C699.864081 239.00858086 701.46866644 240.3115391 703.07421875 241.61328125 C713.24629705 249.86779545 723.1819462 258.39599754 732.8828125 267.19921875 C734.89464643 269.01624482 736.92816684 270.80256892 738.9765625 272.578125 C743.87169577 276.84917753 748.65370507 281.24220631 753.42236328 285.65332031 C754.52501289 286.67100274 755.63008587 287.68606697 756.73779297 288.69824219 C766.81479422 297.90729735 776.50397722 307.49872405 786.1640625 317.140625 C786.80052704 317.77450134 787.43699158 318.40837769 788.09274292 319.0614624 C800.26882421 331.19848823 800.26882421 331.19848823 805.54174805 337.39819336 C808.55800654 340.88844207 811.79146156 344.18020386 814.9765625 347.515625 C820.24364101 353.06721497 825.27015383 358.67196048 830.03125 364.6640625 C832.2942867 367.43948486 834.67548401 370.0693089 837.1015625 372.703125 C841.9952451 378.0328039 846.56364094 383.57008988 851.1015625 389.203125 C852.13450483 390.46819299 853.16841908 391.7324678 854.203125 392.99609375 C860.9865722 401.28853439 867.63908552 409.65711719 874.1015625 418.203125 C874.66101562 418.94046875 875.22046875 419.6778125 875.796875 420.4375 C877.69385316 422.93989673 879.58587044 425.44597603 881.4765625 427.953125 C882.34063721 429.09442871 882.34063721 429.09442871 883.22216797 430.25878906 C894.27536203 444.97007124 904.58558807 460.20849566 914.7890625 475.515625 C915.39862793 476.42943939 916.00819336 477.34325378 916.63623047 478.28475952 C926.89157919 493.68068558 936.77646349 509.22512357 946.1015625 525.203125 C946.65150879 526.1430127 947.20145508 527.08290039 947.76806641 528.05126953 C951.27546274 534.06715401 954.71274665 540.11972989 958.1015625 546.203125 C958.57335938 547.04907227 959.04515625 547.89501953 959.53125 548.76660156 C987.65744041 599.37474012 1011.34065601 651.78707667 1031.1015625 706.203125 C1031.487677 707.2635199 1031.487677 707.2635199 1031.8815918 708.34533691 C1062.27353823 791.97896799 1080.49105945 879.7971993 992.25732422 1521.37426758 C981.79280742 1543.58527458 970.84639093 1565.50228179 958.515625 1586.7421875 C956.75308937 1589.80958377 955.05463194 1592.90933055 953.36010742 1596.01464844 C938.59426349 1623.03261639 921.64642568 1648.92406009 904.1015625 1674.203125 C903.57320801 1674.96463867 903.04485352 1675.72615234 902.50048828 1676.51074219 C891.59490779 1692.18422985 880.32637956 1707.59378165 868.42822266 1722.52929688 C867.06322231 1724.25149827 865.71161234 1725.98347324 864.36328125 1727.71875 C858.96848598 1734.65423392 853.43076713 1741.43357703 847.72265625 1748.11328125 C845.27852916 1750.97890194 842.90460516 1753.89718022 840.5390625 1756.828125 C836.66576978 1761.58832553 832.59396258 1766.13117284 828.44140625 1770.6484375 C826.44321402 1772.83010315 824.48007361 1775.03323809 822.5390625 1777.265625 C808.43808295 1793.45563856 793.59181865 1808.87966967 778.39501953 1824.04003906 C775.70618292 1826.72346356 773.02280294 1829.41226292 770.33984375 1832.1015625 C768.60709175 1833.83365443 766.87402997 1835.56543654 765.140625 1837.296875 C764.35088287 1838.08864136 763.56114075 1838.88040771 762.74746704 1839.69616699 C758.5799942 1843.84624132 754.33764317 1847.8436916 749.87138367 1851.67141724 C746.92834545 1854.21849632 744.11971435 1856.90770644 741.2890625 1859.578125 C736.26467549 1864.28465774 731.11172859 1868.73170564 725.734375 1873.03515625 C722.99187096 1875.29344963 720.3921866 1877.66093834 717.7890625 1880.078125 C713.15728316 1884.34041767 708.33841677 1888.24562993 703.36621094 1892.0949707 C699.51958342 1895.0755293 695.7598367 1898.1289829 692.0390625 1901.265625 C685.87009044 1906.4403902 679.52230196 1911.34885372 673.1015625 1916.203125 C672.49328613 1916.66444824 671.88500977 1917.12577148 671.25830078 1917.60107422 C666.55916111 1921.16190549 661.83535616 1924.68854024 657.1015625 1928.203125 C656.1434668 1928.91879639 656.1434668 1928.91879639 655.16601562 1929.64892578 C619.28188175 1956.37987323 580.84570753 1980.53951417 541.53271484 2001.88232422 C539.78639476 2002.83106811 538.04217196 2003.78367618 536.29931641 2004.73876953 C507.17604227 2020.69563213 477.57325923 2035.03407719 447.1015625 2048.203125 C446.41153137 2048.50216736 445.72150024 2048.80120972 445.01055908 2049.10931396 C426.32361919 2057.2048461 407.45971577 2064.68279831 388.2454834 2071.44726562 C385.9856762 2072.2439818 383.72766634 2073.04566408 381.46972656 2073.84765625 C355.62646731 2083.0057432 329.57973681 2091.08826084 303.1015625 2098.203125 C302.28230286 2098.4239978 301.46304321 2098.64487061 300.61895752 2098.87243652 C235.19721718 2116.46294463 168.02825613 2127.20297997 100.4765625 2131.953125 C99.2203006 2132.04200989 99.2203006 2132.04200989 97.93865967 2132.13269043 C74.20548559 2133.77959485 50.45102798 2134.41359381 26.6640625 2134.390625 C25.48490265 2134.39002075 24.3057428 2134.3894165 23.09085083 2134.38879395 C-69.848699 2134.26112224 -162.28098108 2121.95924086 -383.8984375 2053.203125 C-384.53640259 2052.93711487 -385.17436768 2052.67110474 -385.83166504 2052.39703369 C-426.34528039 2035.48533915 -465.92050474 2016.23621786 -503.8984375 1994.203125 C-505.62291395 1993.2099892 -507.3473918 1992.21685585 -509.07191467 1991.22380066 C-541.04152615 1972.79101471 -572.03147017 1952.66338262 -601.75341797 1930.77880859 C-604.04635114 1929.09447093 -606.34882655 1927.42373522 -608.65234375 1925.75390625 C-617.69274276 1919.17758711 -626.50189464 1912.39831892 -635.12890625 1905.2890625 C-638.71056196 1902.34032825 -642.35857212 1899.48475329 -646.0234375 1896.640625 C-652.57290702 1891.53579613 -658.8704265 1886.16675962 -665.13964844 1880.72363281 C-666.90834988 1879.19455555 -668.68666927 1877.67751719 -670.46875 1876.1640625 C-677.14307203 1870.49180306 -683.69335995 1864.71584558 -690.12109375 1858.765625 C-692.58782995 1856.48970524 -695.07938098 1854.24743249 -697.5859375 1852.015625 C-710.25236547 1840.60192068 -722.45725823 1828.74564203 -734.5234375 1816.703125 C-735.13403015 1816.09512054 -735.7446228 1815.48711609 -736.37371826 1814.86068726 C-748.38879875 1802.88580382 -748.38879875 1802.88580382 -753.49560547 1796.8203125 C-755.05175845 1795.02637631 -756.70324141 1793.36555534 -758.3984375 1791.703125 C-761.41257332 1788.73577177 -764.19761083 1785.62967208 -766.95703125 1782.42578125 C-769.18647811 1779.87335617 -771.47845132 1777.38424986 -773.7734375 1774.890625 C-777.82365042 1770.45061716 -781.65377872 1765.88378219 -785.42578125 1761.20703125 C-788.30727383 1757.70645022 -791.28588312 1754.30055175 -794.2734375 1750.890625 C-799.88488393 1744.46074124 -805.21603289 1737.86129644 -810.42675781 1731.10449219 C-812.0095274 1729.05960009 -813.60523274 1727.0252818 -815.203125 1724.9921875 C-823.65464948 1714.22079974 -831.86273637 1703.28793635 -839.8984375 1692.203125 C-840.36862305 1691.55714355 -840.83880859 1690.91116211 -841.32324219 1690.24560547 C-863.64450949 1659.4791085 -884.08514391 1627.21260566 -902.8984375 1594.203125 C-903.77991455 1592.66664307 -903.77991455 1592.66664307 -904.67919922 1591.09912109 C-924.55873529 1556.31395717 -942.51736901 1520.2008601 -957.8984375 1483.203125 C-958.18831543 1482.50693054 -958.47819336 1481.81073608 -958.77685547 1481.09344482 C-982.89500283 1423.04635029 -1001.75015064 1363.42968996 -1015.8984375 1302.203125 C-1016.13500061 1301.18333557 -1016.13500061 1301.18333557 -1016.37634277 1300.14294434 C-1036.65851829 1212.46763347 -1044.22005644 1121.31143695 -907.51367188 548.0234375 C-905.81505256 545.05752905 -904.15696751 542.07180206 -902.5078125 539.078125 C-890.31430257 516.9481431 -876.75294331 495.85821828 -862.7734375 474.828125 C-861.89011749 473.49698166 -861.89011749 473.49698166 -860.98895264 472.13894653 C-850.39107224 456.1875186 -839.38695061 440.57418404 -827.7109375 425.390625 C-826.70051392 424.07118896 -826.70051392 424.07118896 -825.66967773 422.72509766 C-824.34530629 420.99641433 -823.01992179 419.26850649 -821.69335938 417.54150391 C-820.11695798 415.48780797 -818.54538118 413.43058315 -816.9765625 411.37109375 C-809.59085216 401.69023909 -801.87203194 392.3107146 -793.98242188 383.0390625 C-791.08962807 379.63387704 -788.26036512 376.18595719 -785.4609375 372.703125 C-781.0839263 367.32026563 -776.40289623 362.26041158 -771.671875 357.19140625 C-769.53489436 354.8995409 -767.44620402 352.57553743 -765.3984375 350.203125 C-758.21064796 341.91087024 -750.70071499 333.92561879 -742.88671875 326.22265625 C-741.09119566 324.39891276 -739.4253622 322.53116003 -737.7734375 320.578125 C-730.20093669 311.76423061 -721.7312883 303.42735568 -712.8515625 295.9375 C-710.25769232 293.63414328 -707.83380187 291.17104882 -705.3984375 288.703125 C-701.73850772 284.99903974 -698.00899957 281.45024733 -694.046875 278.0703125 C-691.86598012 276.17491659 -689.74388004 274.2228598 -687.6262207 272.25732422 C-682.41816408 267.42486845 -677.08350073 262.84066875 -671.546875 258.3828125 C-668.92568631 256.22555101 -666.40689469 253.990015 -663.8984375 251.703125 C-658.72296776 246.99889112 -653.3469986 242.58597013 -647.8984375 238.203125 C-646.78886967 237.30101838 -645.67950309 236.39866417 -644.5703125 235.49609375 C-634.99821884 227.73953356 -625.17254726 220.34306755 -615.28955078 212.98876953 C-613.10872901 211.36016728 -610.93684029 209.72073851 -608.76953125 208.07421875 C-560.09763575 171.12946167 -507.16995717 140.10313954 -452.8984375 112.203125 C-451.58552734 111.52515869 -451.58552734 111.52515869 -450.24609375 110.83349609 C-401.21517684 85.58994696 -349.46376611 65.75093473 -297.01794434 48.88549805 C-294.99298716 48.23356517 -292.96954216 47.57712058 -290.94628906 46.91992188 C-206.568347 19.62178808 -117.50599929 5.04002248 0 0 Z " fill="#1877F2" transform="translate(1045.8984375,4.796875)"/>
<path d="M0 0 C1.78422363 0.02682861 1.78422363 0.02682861 3.60449219 0.05419922 C56.51000107 0.97190683 109.20240422 5.40837796 161.6875 11.9375 C162.35133949 12.01976711 163.01517899 12.10203423 163.69913483 12.18679428 C184.52898239 14.76947936 205.23990274 17.85453072 226 21 C226 107.79 226 194.58 226 284 C151.1875 284.375 151.1875 284.375 127.66479492 284.47802734 C120.6370546 284.51798726 120.6370546 284.51798726 113.60932922 284.56045532 C110.50683495 284.57913694 107.40436796 284.59259156 104.30183411 284.60269165 C79.58685698 284.66732227 79.58685698 284.66732227 55 287 C53.37146843 287.20627518 53.37146843 287.20627518 51.71003723 287.41671753 C16.04643128 291.95881255 -17.13050432 306.82158349 -42 333 C-42.56847656 333.58523438 -43.13695312 334.17046875 -43.72265625 334.7734375 C-72.96805886 366.05380849 -81.08954015 409.21273332 -81.20532227 450.53588867 C-81.21504923 452.74995001 -81.22519532 454.96400954 -81.23572445 457.17806721 C-81.26266319 463.08429909 -81.28389792 468.99053833 -81.30391693 474.89679718 C-81.32360552 480.44769317 -81.34848391 485.99856129 -81.3729248 491.54943848 C-81.44130759 507.76210459 -81.5014019 523.9748048 -81.5625 540.1875 C-81.706875 576.425625 -81.85125 612.66375 -82 650 C15.35 650 112.7 650 213 650 C212.3286267 658.72785286 211.49770204 667.17053062 210.13671875 675.78125 C209.94911987 676.99411179 209.761521 678.20697357 209.5682373 679.45658875 C209.05411985 682.7740228 208.53560835 686.0907135 208.01519394 689.40716171 C207.45399282 692.99130856 206.89889637 696.57640153 206.34301758 700.16137695 C205.02408796 708.65946101 203.69659981 717.15619733 202.36724854 725.65265656 C201.76542142 729.49935654 201.16397609 733.34611621 200.5625 737.19287109 C200.44419736 737.94943151 200.32589472 738.70599192 200.20400715 739.4854784 C198.98859387 747.25843441 197.77393937 755.03150882 196.55978012 762.8046608 C196.1855866 765.19974706 195.81114574 767.59479456 195.43667603 769.98983765 C191.33176488 796.2514827 187.33264748 822.52829267 183.375 848.8125 C179.49782759 874.55941273 175.59363296 900.30146973 171.57733917 926.02709579 C171.25259547 928.10836574 170.92855264 930.18974376 170.60467529 932.27114868 C170.015061 936.0587736 169.42198013 939.84585001 168.828125 943.6328125 C168.65586395 944.73877274 168.48360291 945.84473297 168.30612183 946.98420715 C168.14741608 947.99118149 167.98871033 948.99815582 167.82519531 950.03564453 C167.68897766 950.90432159 167.55276001 951.77299866 167.41241455 952.66799927 C167.03581338 954.797493 166.52449258 956.90202966 166 959 C84.16 959 2.32 959 -82 959 C-82 1205.18 -82 1451.36 -82 1705 C-97.47817606 1707.47650817 -112.81503166 1709.87268219 -128.375 1711.5625 C-129.31768738 1711.66639038 -130.26037476 1711.77028076 -131.23162842 1711.87731934 C-145.67576417 1713.45938924 -160.12993543 1714.73938662 -174.625 1715.75 C-175.46069519 1715.80898468 -176.29639038 1715.86796936 -177.15740967 1715.92874146 C-200.89242613 1717.57624743 -224.64864836 1718.21047063 -248.4375 1718.1875 C-249.61665985 1718.18689575 -250.7958197 1718.1862915 -252.01071167 1718.18566895 C-302.78122402 1718.11592514 -353.10657193 1714.28299487 -403.3828125 1707.26953125 C-404.20033493 1707.15613907 -405.01785736 1707.04274689 -405.8601532 1706.92591858 C-409.30819533 1706.43533459 -412.61647144 1705.84588214 -416 1705 C-416 1458.82 -416 1212.64 -416 959 C-505.43 959 -594.86 959 -687 959 C-687 857.03 -687 755.06 -687 650 C-597.57 650 -508.14 650 -416 650 C-416.11850394 564.12558167 -416.11850394 564.12558167 -416.27026367 478.2512207 C-416.28381348 461.53356934 -416.28381348 461.53356934 -416.28633118 453.67424011 C-416.28909376 448.25749119 -416.30001093 442.84083585 -416.31672668 437.42411804 C-416.59646297 343.71270711 -404.96077401 253.74703618 -333 138 C-331.87078125 136.54980469 -331.87078125 136.54980469 -330.71875 135.0703125 C-326.06537118 129.14279424 -321.07857948 123.56390448 -316 118 C-314.47884881 116.29194969 -312.95801337 114.58361812 -311.4375 112.875 C-305.02544576 105.76162733 -298.28188271 99.21321051 -291 93 C-290.10023438 92.21109375 -289.20046875 91.4221875 -288.2734375 90.609375 C-221.02370098 32.07335007 -133.06374806 6.15948035 0 0 Z " fill="#FEFEFE" transform="translate(1321,421)"/>
</svg>
