<?xml version="1.0" encoding="UTF-8"?>
<svg version="1.1" xmlns="http://www.w3.org/2000/svg" width="750" height="500">
<path d="M0 0 C247.5 0 495 0 750 0 C750 165 750 330 750 500 C502.5 500 255 500 0 500 C0 335 0 170 0 0 Z " fill="#FEFEFE" transform="translate(0,0)"/>
<path d="M0 0 C4.43859075 3.04389249 8.75905166 6.23902567 13.0546875 9.48046875 C14.02317627 10.20919189 14.02317627 10.20919189 15.01123047 10.95263672 C19.55222743 14.38262783 24.05345097 17.86011272 28.4765625 21.44140625 C31.60781423 23.91794171 34.82445618 26.26046111 38.0546875 28.60546875 C43.48329878 32.5641628 48.83873785 36.59781682 54.14746094 40.71606445 C58.76726673 44.28737885 63.47358948 47.73192646 68.1940918 51.16845703 C72.97426655 54.66009467 77.67881371 58.24179537 82.3671875 61.85546875 C89.07503879 67.02377527 95.89697436 72.01032447 102.78710938 76.93237305 C107.68925128 80.44835104 112.41488025 84.08194418 117.01171875 87.9921875 C120.22862072 90.41050358 120.22862072 90.41050358 124.0546875 91.48046875 C127.05490661 89.94142443 129.53516123 87.81908161 132.1171875 85.66796875 C133.65201104 84.44098994 135.18716824 83.21442841 136.72265625 81.98828125 C137.46821777 81.38274414 138.2137793 80.77720703 138.98193359 80.15332031 C141.5849062 78.05254666 144.24613866 76.03949872 146.9296875 74.04296875 C147.86683594 73.34171875 148.80398438 72.64046875 149.76953125 71.91796875 C153.16800207 69.38987748 156.58320514 66.88461468 159.99658203 64.37670898 C167.26975861 59.0324682 174.48497813 53.6365699 181.6171875 48.10546875 C185.87820639 44.82776191 190.22025478 41.66001586 194.5546875 38.48046875 C201.11571804 33.6668906 207.61406693 28.78914809 214.04296875 23.80078125 C218.18597913 20.60888999 222.38696432 17.49778171 226.59375 14.390625 C228.99317672 12.61193795 228.99317672 12.61193795 230.6875 10.83984375 C232.57786563 8.96028021 234.85279002 7.91420099 237.17578125 6.6484375 C239.1406802 5.42701383 240.68244733 4.06165515 242.3671875 2.48046875 C249.47230638 -3.86912844 258.85310114 -5.85354966 268.12109375 -5.73046875 C278.37128845 -4.99343744 287.92940537 -0.19987055 294.9296875 7.29296875 C302.07347074 16.12160652 303.20436078 25.41752322 303.20185852 36.45515442 C303.20553521 37.33612704 303.2092119 38.21709967 303.213 39.12476844 C303.22397716 42.06471167 303.22787044 45.00461948 303.23168945 47.94458008 C303.23795844 50.05744029 303.24460563 52.17029942 303.25160217 54.28315735 C303.27258712 61.20959717 303.28299699 68.13603708 303.29296875 75.0625 C303.2970179 77.45051268 303.30113487 79.83852525 303.30531883 82.2265377 C303.32435554 93.44345919 303.3385917 104.66037414 303.3469308 115.87730867 C303.35670825 128.81396158 303.38304755 141.75044363 303.42343169 154.68703634 C303.45360156 164.69574497 303.46840037 174.70440462 303.47171181 184.71315783 C303.47406057 190.6871177 303.48299933 196.66089469 303.50817299 202.63480568 C303.53147485 208.2548708 303.53567827 213.87463287 303.52541161 219.49473381 C303.52491671 221.5530104 303.53122329 223.61130202 303.54496765 225.66953278 C303.68377309 247.69411176 303.68377309 247.69411176 296.8046875 256.29296875 C273.63998247 274.71943866 262.02565971 264.48046875 221.0546875 264.48046875 C220.7246875 218.94046875 220.3946875 173.40046875 220.0546875 126.48046875 C213.1246875 131.76046875 206.1946875 137.04046875 199.0546875 142.48046875 C189.5546875 149.48046875 189.5546875 149.48046875 184.8828125 152.90625 C179.64386627 156.76646943 174.47286191 160.71375443 169.3046875 164.66796875 C162.83621423 169.61651793 156.35510119 174.53835001 149.74755859 179.30029297 C146.05247814 181.97317915 142.44386239 184.73363153 138.86328125 187.55859375 C137.51375366 188.6093811 137.51375366 188.6093811 136.13696289 189.68139648 C134.36021611 191.06719168 132.59457854 192.46737379 130.84155273 193.88305664 C130.03274658 194.50946045 129.22394043 195.13586426 128.390625 195.78125 C127.67438965 196.35012939 126.9581543 196.91900879 126.22021484 197.50512695 C124.0546875 198.48046875 124.0546875 198.48046875 121.47119141 197.77416992 C119.0546875 196.48046875 119.0546875 196.48046875 116.0546875 194.48046875 C116.0546875 193.82046875 116.0546875 193.16046875 116.0546875 192.48046875 C115.3946875 192.27421875 114.7346875 192.06796875 114.0546875 191.85546875 C109.92501044 189.9627001 106.62386299 187.26389292 103.0546875 184.48046875 C101.78635734 183.51882498 100.5155252 182.56047202 99.2421875 181.60546875 C98.59636719 181.11820313 97.95054687 180.6309375 97.28515625 180.12890625 C95.57340275 178.86382748 93.84323823 177.62362913 92.10546875 176.39453125 C91.09871094 175.68039062 90.09195313 174.96625 89.0546875 174.23046875 C88.1059375 173.5653125 87.1571875 172.90015625 86.1796875 172.21484375 C85.4784375 171.6425 84.7771875 171.07015625 84.0546875 170.48046875 C84.0546875 169.82046875 84.0546875 169.16046875 84.0546875 168.48046875 C83.3534375 168.24328125 82.6521875 168.00609375 81.9296875 167.76171875 C78.52581183 166.24477416 75.97915205 164.29079574 73.0546875 161.98046875 C71.89718663 161.07415333 70.73963309 160.16790519 69.58203125 159.26171875 C68.70200439 158.56755859 68.70200439 158.56755859 67.80419922 157.859375 C65.08699772 155.71776824 62.35534565 153.59519387 59.6171875 151.48046875 C59.08778564 151.07151367 58.55838379 150.66255859 58.01293945 150.24121094 C52.84594829 146.27557438 47.54443125 142.50715286 42.23046875 138.7421875 C38.4543332 136.05291015 34.74404107 133.28682538 31.0546875 130.48046875 C30.32507813 129.97386719 29.59546875 129.46726563 28.84375 128.9453125 C27.95816406 128.22021484 27.95816406 128.22021484 27.0546875 127.48046875 C27.0546875 126.82046875 27.0546875 126.16046875 27.0546875 125.48046875 C26.2296875 125.27421875 25.4046875 125.06796875 24.5546875 124.85546875 C19.52777434 122.88061001 15.23492604 119.77054299 11.50390625 115.8515625 C9.98727435 114.22340035 9.98727435 114.22340035 7.0546875 113.48046875 C7.0546875 112.82046875 7.0546875 112.16046875 7.0546875 111.48046875 C6.0646875 111.15046875 5.0746875 110.82046875 4.0546875 110.48046875 C4.0546875 109.82046875 4.0546875 109.16046875 4.0546875 108.48046875 C3.47203125 108.37089844 2.889375 108.26132813 2.2890625 108.1484375 C-0.20675995 107.40230876 -1.65483594 106.39921166 -3.6953125 104.79296875 C-4.39269531 104.2515625 -5.09007812 103.71015625 -5.80859375 103.15234375 C-6.51371094 102.600625 -7.21882813 102.04890625 -7.9453125 101.48046875 C-9.25562681 100.49837913 -10.56809988 99.51916255 -11.8828125 98.54296875 C-15.63817568 95.73757887 -19.30779977 92.83054533 -22.96484375 89.8984375 C-24.98871843 88.30202524 -24.98871843 88.30202524 -27.9453125 87.48046875 C-29.61197917 85.81380208 -31.27864583 84.14713542 -32.9453125 82.48046875 C-33.7703125 81.98546875 -34.5953125 81.49046875 -35.4453125 80.98046875 C-38.43015959 79.1895605 -40.55658776 76.99831374 -42.9453125 74.48046875 C-44.77192004 72.36082596 -44.77192004 72.36082596 -47.1328125 71.73046875 C-51.08115081 69.97565172 -54.18015675 67.83123284 -56.9453125 64.48046875 C-57.89248017 61.53350247 -57.83825674 58.78932031 -57.734375 55.71484375 C-57.73158539 54.88140442 -57.72879578 54.04796509 -57.72592163 53.18927002 C-57.71320018 51.43083307 -57.68362141 49.67244661 -57.63818359 47.91455078 C-57.57085472 45.25191182 -57.5562037 42.59309861 -57.55078125 39.9296875 C-57.43426677 26.45577292 -56.04727308 16.02342108 -46.9453125 5.48046875 C-34.18476175 -6.63035945 -14.96424168 -9.85941881 0 0 Z " fill="#E94235" transform="translate(251.9453125,120.51953125)"/>
<path d="M0 0 C0.33 0 0.66 0 1 0 C1.09352414 23.29633888 1.16401884 46.59264671 1.20724869 69.88913536 C1.22785636 80.70659036 1.25594269 91.52392857 1.30175781 102.34130859 C1.34168047 111.77193425 1.36744586 121.20247531 1.37635398 130.63318312 C1.38155952 135.62470642 1.39375708 140.61598773 1.42292023 145.60743332 C1.45017509 150.31059967 1.45842469 155.01342554 1.45243073 159.71666336 C1.45352647 161.43791813 1.46142018 163.15918489 1.4768219 164.88037109 C1.56441818 175.17918137 1.47186741 184.41016574 -5.25 192.8125 C-11.24098512 197.57805635 -16.26470314 201.12895477 -24.01025391 201.11352539 C-25.27141022 201.11344986 -26.53256653 201.11337433 -27.8319397 201.11329651 C-29.21348103 201.10818949 -30.59502196 201.10297349 -31.9765625 201.09765625 C-33.3861791 201.09579144 -34.79579634 201.09436783 -36.20541382 201.09336853 C-39.91753932 201.08954833 -43.62962578 201.07972228 -47.34173584 201.06866455 C-51.12886019 201.05843975 -54.91599083 201.05386862 -58.703125 201.04882812 C-66.13543448 201.03809958 -73.56771177 201.02102911 -81 201 C-81.37475807 183.10185566 -81.65638199 165.20473716 -81.82899475 147.30350971 C-81.91129588 138.99030774 -82.02335841 130.67955124 -82.20703125 122.36791992 C-82.36716106 115.11817306 -82.46987842 107.87019741 -82.50541592 100.6187312 C-82.52617604 96.78249608 -82.5744605 92.95132462 -82.69168091 89.11672401 C-83.43135388 63.97005111 -83.43135388 63.97005111 -77.47216797 57.22323608 C-73.06669423 53.22074586 -68.21035182 50.52348141 -62.86964417 47.9890337 C-60.88466333 47.05639463 -60.88466333 47.05639463 -59.25 45.25 C-55.39793077 41.39793077 -50.89937211 38.37275492 -46.4921875 35.1875 C-40.71079278 31.00736621 -35.01559865 26.74435634 -29.4152832 22.32519531 C-27.31999098 20.6896861 -25.34409505 19.16261581 -22.93359375 18.0234375 C-20.77852655 17.00413699 -20.77852655 17.00413699 -18.69921875 14.69921875 C-15.63325363 11.63325363 -12.36846482 9.26860527 -8.8125 6.8125 C-4.19782034 3.66512762 -4.19782034 3.66512762 0 0 Z " fill="#34A853" transform="translate(554,184)"/>
<path d="M0 0 C4.8125 2.8046875 4.8125 2.8046875 6.5 4.5625 C7.97366204 6.16258243 7.97366204 6.16258243 10.3125 6.875 C13.90055696 8.37697733 16.15007558 10.34890752 19 13 C19 13.66 19 14.32 19 15 C19.721875 15.2475 20.44375 15.495 21.1875 15.75 C24.27606582 17.12269592 26.51011418 18.72353296 29 21 C29 21.66 29 22.32 29 23 C29.87398437 23.16435547 29.87398437 23.16435547 30.765625 23.33203125 C33.26144745 24.07815999 34.70952344 25.08125709 36.75 26.6875 C37.44738281 27.22890625 38.14476562 27.7703125 38.86328125 28.328125 C39.56839844 28.87984375 40.27351563 29.4315625 41 30 C42.31031431 30.98208962 43.62278738 31.9613062 44.9375 32.9375 C48.69286318 35.74288988 52.36248727 38.64992342 56.01953125 41.58203125 C58.04340593 43.17844351 58.04340593 43.17844351 61 44 C62.6875 45.4375 62.6875 45.4375 64 47 C64 47.66 64 48.32 64 49 C64.556875 49.061875 65.11375 49.12375 65.6875 49.1875 C68.33691931 50.11837706 69.42820373 51.50101479 71.296875 53.5234375 C75.01163396 56.74403128 79.64138804 58.77871089 84 61 C83.01 61.495 83.01 61.495 82 62 C82 107.54 82 153.08 82 200 C17 200 17 200 7.625 193.75 C1.44277738 187.27338583 -0.12638546 180.47843546 -0.12025452 171.72344971 C-0.12110894 170.98907614 -0.12196337 170.25470256 -0.12284368 169.49807525 C-0.12449109 167.03677797 -0.11898919 164.57554881 -0.11352539 162.11425781 C-0.11324333 160.35014345 -0.11340162 158.58602897 -0.1139679 156.82191467 C-0.11425515 152.03097176 -0.10837004 147.24005381 -0.10139394 142.44911671 C-0.09514843 137.44294676 -0.09455565 132.43677627 -0.09336853 127.43060303 C-0.09025876 117.94987626 -0.08205012 108.46916101 -0.07201904 98.98843932 C-0.06084694 88.19532494 -0.05534468 77.40221001 -0.05032361 66.60909128 C-0.03986723 44.40605443 -0.0222746 22.20302794 0 0 Z " fill="#4285F4" transform="translate(195,185)"/>
<path d="M0 0 C7.33947275 5.45217976 12.33270043 12.78070042 13.84594727 21.85522461 C14.64296937 28.30666894 14.74287952 34.7588814 14.83911133 41.25097656 C14.87085708 42.90175553 14.9187223 44.55230293 14.98266602 46.20214844 C15.50302272 59.85913426 15.50302272 59.85913426 12.72314453 64.26293945 C10.68445607 66.08558053 8.71401952 67.40747265 6.32421875 68.7265625 C5.2465625 69.48324219 4.16890625 70.23992187 3.05859375 71.01953125 C2.07375 71.64472656 1.08890625 72.26992187 0.07421875 72.9140625 C-3.62528986 75.26698832 -6.61194252 77.60801236 -9.67578125 80.7265625 C-11.40158065 82.05038999 -13.15346715 83.34068761 -14.92578125 84.6015625 C-19.55405298 87.92064183 -24.12987575 91.29604412 -28.67578125 94.7265625 C-30.66657244 96.22063368 -32.65824901 97.71346529 -34.65234375 99.203125 C-36.0712574 100.27141906 -37.48207368 101.35051318 -38.88671875 102.4375 C-39.60085938 102.98664063 -40.315 103.53578125 -41.05078125 104.1015625 C-41.69789063 104.60429687 -42.345 105.10703125 -43.01171875 105.625 C-44.67578125 106.7265625 -44.67578125 106.7265625 -46.67578125 106.7265625 C-47.00578125 107.7165625 -47.33578125 108.7065625 -47.67578125 109.7265625 C-49.31831926 110.7657192 -50.99172744 111.75612933 -52.67578125 112.7265625 C-55.16404131 114.55834544 -57.57357351 116.48677259 -59.98828125 118.4140625 C-60.63345703 118.92517578 -61.27863281 119.43628906 -61.94335938 119.96289062 C-63.52291075 121.21483134 -65.09963494 122.47033764 -66.67578125 123.7265625 C-67.33578125 123.3965625 -67.99578125 123.0665625 -68.67578125 122.7265625 C-68.90768075 109.17479766 -69.08526505 95.6235062 -69.19390297 82.07015991 C-69.24605005 75.77636541 -69.31675503 69.48393015 -69.43017578 63.19091797 C-69.53898931 57.11537365 -69.5986561 51.04113483 -69.62455368 44.96469116 C-69.64300361 42.64890998 -69.6790347 40.33319877 -69.73308182 38.01797485 C-70.14032674 19.84682328 -70.14032674 19.84682328 -66.48681641 14.55754089 C-63.95125064 12.49907806 -61.63146801 11.08688773 -58.67578125 9.7265625 C-57.70125 9.02144531 -56.72671875 8.31632813 -55.72265625 7.58984375 C-54.9646875 7.07808594 -54.20671875 6.56632813 -53.42578125 6.0390625 C-50.67902943 4.16239976 -48.12064761 2.291636 -45.67578125 0.0390625 C-31.79129676 -10.66356096 -14.18070197 -9.03824961 0 0 Z " fill="#FBBC04" transform="translate(540.67578125,122.2734375)"/>
<path d="M0 0 C3.7113412 2.56110304 7.344102 5.22199695 10.96044922 7.91503906 C12.78478353 9.26271377 14.62689673 10.57532331 16.48828125 11.87109375 C17.47699219 12.56460938 18.46570313 13.258125 19.484375 13.97265625 C20.3403125 14.57207031 21.19625 15.17148438 22.078125 15.7890625 C23.984375 17.41015625 23.984375 17.41015625 24.984375 20.41015625 C25.07272515 21.81898393 25.10636579 23.23164006 25.10462952 24.64323425 C25.10669151 25.93678581 25.10669151 25.93678581 25.10879517 27.25646973 C25.10340225 28.67095398 25.10340225 28.67095398 25.09790039 30.11401367 C25.09804642 31.10931595 25.09819244 32.10461823 25.0983429 33.13008118 C25.09764532 36.4252845 25.08986011 39.72043154 25.08203125 43.015625 C25.08016652 45.2982022 25.07874288 47.5807798 25.07774353 49.86335754 C25.07392267 55.87540794 25.06409604 61.88743423 25.05303955 67.8994751 C25.04281618 74.03258946 25.03824392 80.1657077 25.03320312 86.29882812 C25.02247341 98.3359481 25.00540214 110.37305017 24.984375 122.41015625 C24.654375 121.75015625 24.324375 121.09015625 23.984375 120.41015625 C22.97375 120.34828125 21.963125 120.28640625 20.921875 120.22265625 C15.74065319 119.66484355 12.43779371 116.05730333 8.984375 112.41015625 C8.654375 111.75015625 8.324375 111.09015625 7.984375 110.41015625 C6.80875 109.99765625 5.633125 109.58515625 4.421875 109.16015625 C-0.45819751 107.42907884 -4.0112805 104.6230354 -8.015625 101.41015625 C-9.32469174 100.42640431 -10.63720352 99.44721988 -11.953125 98.47265625 C-15.70848818 95.66726637 -19.37811227 92.76023283 -23.03515625 89.828125 C-25.05903093 88.23171274 -25.05903093 88.23171274 -28.015625 87.41015625 C-29.68229167 85.74348958 -31.34895833 84.07682292 -33.015625 82.41015625 C-33.840625 81.91515625 -34.665625 81.42015625 -35.515625 80.91015625 C-38.50047209 79.119248 -40.62690026 76.92800124 -43.015625 74.41015625 C-44.84223254 72.29051346 -44.84223254 72.29051346 -47.203125 71.66015625 C-51.15146331 69.90533922 -54.25046925 67.76092034 -57.015625 64.41015625 C-57.96279267 61.46318997 -57.90856924 58.71900781 -57.8046875 55.64453125 C-57.80189789 54.81109192 -57.79910828 53.97765259 -57.79623413 53.11895752 C-57.78351268 51.36052057 -57.75393391 49.60213411 -57.70849609 47.84423828 C-57.64116722 45.18159932 -57.6265162 42.52278611 -57.62109375 39.859375 C-57.50457927 26.38546042 -56.11758558 15.95310858 -47.015625 5.41015625 C-34.22856069 -6.72583554 -14.95557913 -9.946085 0 0 Z " fill="#C4211F" transform="translate(252.015625,120.58984375)"/>
<path d="M0 0 C4.875 2.75 4.875 2.75 6 5 C4.68 4.67 3.36 4.34 2 4 C2.10746059 25.28884109 2.22026068 46.57764802 2.33933926 67.86642742 C2.39451186 77.75216731 2.44796674 87.63791081 2.49731445 97.52368164 C2.54035278 106.14461291 2.58667863 114.76551932 2.63687855 123.38641196 C2.66332221 127.94699377 2.68816962 132.50757115 2.70907402 137.06818199 C2.72884402 141.36993831 2.75304436 145.671648 2.78049088 149.97336197 C2.78975475 151.5433612 2.79746687 153.11337057 2.80341911 154.68338585 C2.8317236 161.93254381 2.92962761 169.17373573 3.32533264 176.41389465 C3.38148774 177.44726361 3.43764284 178.48063257 3.49549961 179.54531574 C3.7734583 182.35694284 3.7734583 182.35694284 7 184 C6.34 184 5.68 184 5 184 C5 184.99 5 185.98 5 187 C5.99 187.33 6.98 187.66 8 188 C7.67 188.99 7.34 189.98 7 191 C8.65 191.66 10.3 192.32 12 193 C12 193.66 12 194.32 12 195 C13.134375 195.144375 14.26875 195.28875 15.4375 195.4375 C19 196 19 196 20 197 C49.7 197.495 49.7 197.495 80 198 C79.505 129.69 79.505 129.69 79 60 C77.68 60 76.36 60 75 60 C75 59.34 75 58.68 75 58 C73.515 57.505 73.515 57.505 72 57 C72.495 56.01 72.495 56.01 73 55 C76.63 56.98 80.26 58.96 84 61 C83.01 61.495 83.01 61.495 82 62 C82 107.54 82 153.08 82 200 C17 200 17 200 7.625 193.75 C1.44277738 187.27338583 -0.12638546 180.47843546 -0.12025452 171.72344971 C-0.12110894 170.98907614 -0.12196337 170.25470256 -0.12284368 169.49807525 C-0.12449109 167.03677797 -0.11898919 164.57554881 -0.11352539 162.11425781 C-0.11324333 160.35014345 -0.11340162 158.58602897 -0.1139679 156.82191467 C-0.11425515 152.03097176 -0.10837004 147.24005381 -0.10139394 142.44911671 C-0.09514843 137.44294676 -0.09455565 132.43677627 -0.09336853 127.43060303 C-0.09025876 117.94987626 -0.08205012 108.46916101 -0.07201904 98.98843932 C-0.06084694 88.19532494 -0.05534468 77.40221001 -0.05032361 66.60909128 C-0.03986723 44.40605443 -0.0222746 22.20302794 0 0 Z " fill="#5F8CE4" transform="translate(195,185)"/>
<path d="M0 0 C0.33 0 0.66 0 1 0 C1.94140368 7.6174056 2.13746994 15.1238584 2.11352539 22.79345703 C2.11367142 24.03362076 2.11381744 25.27378448 2.1139679 26.55152893 C2.11339445 29.92068863 2.1084116 33.28978552 2.10139394 36.65893412 C2.09510289 40.19163735 2.09455208 43.72434159 2.09336853 47.25704956 C2.09027207 53.93263431 2.08208158 60.60820249 2.07201904 67.28377998 C2.05870471 76.31445351 2.05334438 85.34513164 2.04751682 94.37581253 C2.0381404 108.5838874 2.01821029 122.79192734 2 137 C22.13 136.67 42.26 136.34 63 136 C63.33 135.34 63.66 134.68 64 134 C66.64860427 133.40644386 69.29197322 133.25790731 72 133 C69.21846556 136.24512351 67.26615224 136.86692388 63 139 C42.21 139 21.42 139 0 139 C0 93.13 0 47.26 0 0 Z " fill="#56A46A" transform="translate(473,246)"/>
<path d="M0 0 C0.66 0 1.32 0 2 0 C2.04668792 23.92152819 2.0819731 47.84304956 2.10362434 71.76461411 C2.11394388 82.87141186 2.12801715 93.97818133 2.15087891 105.08496094 C2.17079204 114.7638349 2.18371151 124.44268839 2.18817699 134.12158227 C2.19078789 139.24809062 2.19693871 144.37454037 2.21146011 149.50102997 C2.22501122 154.32394308 2.22922765 159.14677333 2.22621536 163.96970367 C2.22676663 165.74184112 2.23075876 167.51398128 2.23841095 169.28610229 C2.24833355 171.70204751 2.24597876 174.11767816 2.24050903 176.53363037 C2.24633472 177.23791349 2.2521604 177.94219661 2.25816262 178.66782165 C2.23597932 182.2827364 1.97600544 184.92384816 0 188 C-0.99 188 -1.98 188 -3 188 C-2.6757435 186.84078285 -2.35148701 185.6815657 -2.01740456 184.48722076 C-0.99583039 180.38079723 -0.70946321 176.42627503 -0.7215271 172.20446777 C-0.7128385 171.09165554 -0.7128385 171.09165554 -0.70397437 169.95636225 C-0.68709555 167.49364936 -0.68410842 165.03112523 -0.68115234 162.56835938 C-0.67184578 160.79379829 -0.66167603 159.01924155 -0.65071106 157.24468994 C-0.62347909 152.4436731 -0.60828185 147.6426855 -0.59528303 142.84161186 C-0.57962268 137.81807997 -0.55284173 132.79460752 -0.5272522 127.77111816 C-0.4805158 118.26576137 -0.44374683 108.76039333 -0.41057932 99.25498056 C-0.37232161 88.43029672 -0.32292101 77.60567265 -0.27259517 66.78103924 C-0.16935175 44.52073699 -0.08006669 22.26039689 0 0 Z " fill="#EFFEF3" transform="translate(555,184)"/>
<path d="M0 0 C0.04668898 23.39999273 0.08197362 46.79997849 0.10362434 70.20000839 C0.11394366 81.06466986 0.1280165 91.92930241 0.15087891 102.79394531 C0.17079273 112.26186843 0.18371167 121.72977061 0.18817699 131.19771409 C0.19078777 136.21244031 0.19693786 141.22710661 0.21146011 146.24181366 C0.2250123 150.95966796 0.22922743 155.67743754 0.22621536 160.39530945 C0.22676659 162.12874563 0.23075808 163.86218457 0.23841095 165.59560394 C0.24833525 167.95900268 0.24597815 170.32207994 0.24050903 172.68548584 C0.24633472 173.37420517 0.2521604 174.06292449 0.25816262 174.7725141 C0.23372219 178.66972508 -0.18886836 180.37773672 -2 184 C-2.33 125.26 -2.66 66.52 -3 6 C-4.32 5.67 -5.64 5.34 -7 5 C-1.125 0 -1.125 0 0 0 Z " fill="#61A975" transform="translate(555,184)"/>
<path d="M0 0 C0.99 0 1.98 0 3 0 C3 34.32 3 68.64 3 104 C2.34 103.67 1.68 103.34 1 103 C1 72.31 1 41.62 1 10 C0.01 9.67 -0.98 9.34 -2 9 C-2.33 8.01 -2.66 7.02 -3 6 C-3.226875 6.556875 -3.45375 7.11375 -3.6875 7.6875 C-6.30895598 12.30625577 -10.20496089 15.76974925 -15 18 C-17.67872165 18.51475435 -20.27405768 18.76898794 -23 19 C-18.80338942 14.53480635 -14.14413096 10.92266151 -9.25 7.25 C-7.71312753 6.08908972 -6.17664762 4.9276595 -4.640625 3.765625 C-3.96547852 3.25805664 -3.29033203 2.75048828 -2.59472656 2.22753906 C-1.05039448 1.09339997 -1.05039448 1.09339997 0 0 Z " fill="#DB5120" transform="translate(470,141)"/>
<path d="M0 0 C0 45.87 0 91.74 0 139 C-2.2082837 135.68757445 -2.25713348 134.65063347 -2.28520203 130.7933197 C-2.29781067 129.71507431 -2.31041931 128.63682892 -2.32341003 127.52590942 C-2.32714127 126.34294281 -2.3308725 125.1599762 -2.3347168 123.94116211 C-2.34636871 122.69547958 -2.35802063 121.44979706 -2.37002563 120.16636658 C-2.39987534 116.74913295 -2.42087296 113.33206577 -2.43764853 109.91475749 C-2.45699111 106.34152431 -2.48672077 102.76837648 -2.51509094 99.19520569 C-2.56116294 93.19551653 -2.59955861 87.19581676 -2.63305664 81.19604492 C-2.67187564 74.25395591 -2.72114697 67.312004 -2.77638692 60.37002748 C-2.82938009 53.69746096 -2.87657918 47.02486742 -2.92057228 40.35223579 C-2.93932079 37.50975711 -2.95982333 34.66729899 -2.98166466 31.82484245 C-3.0116867 27.85973683 -3.03308215 23.89461081 -3.0534668 19.92944336 C-3.06327072 18.74445251 -3.07307465 17.55946167 -3.08317566 16.33856201 C-3.08732483 15.26313644 -3.091474 14.18771088 -3.0957489 13.07969666 C-3.10429665 11.67243269 -3.10429665 11.67243269 -3.11301708 10.23673916 C-3 8 -3 8 -2 6 C-4.31 6.33 -6.62 6.66 -9 7 C-2.18421053 0 -2.18421053 0 0 0 Z " fill="#EEFEEE" transform="translate(473,246)"/>
<path d="M0 0 C0.66 0.33 1.32 0.66 2 1 C1.51322375 1.40925878 1.02644751 1.81851755 0.52492046 2.24017811 C-1.3405485 4.39300719 -1.38109267 5.3461717 -1.39872742 8.15715027 C-1.41126556 9.00268967 -1.42380371 9.84822906 -1.4367218 10.71939087 C-1.43456917 12.10582291 -1.43456917 12.10582291 -1.43237305 13.52026367 C-1.4425647 14.49605881 -1.45275635 15.47185394 -1.46325684 16.47721863 C-1.49348826 19.7075263 -1.50266837 22.93753795 -1.51171875 26.16796875 C-1.52855789 28.40571588 -1.54670708 30.6434535 -1.56611633 32.88117981 C-1.61370539 38.77482128 -1.6434572 44.66842423 -1.66955566 50.56219482 C-1.69931625 56.57474375 -1.745862 62.58715983 -1.79101562 68.59960938 C-1.87715009 80.39967022 -1.94445027 92.19975833 -2 104 C-0.68 104 0.64 104 2 104 C2 102.68 2 101.36 2 100 C2.99 100 3.98 100 5 100 C5 99.34 5 98.68 5 98 C6.98 98 8.96 98 11 98 C6.73412126 102.54109672 1.96387672 106.24735246 -3 110 C-3.66 109.67 -4.32 109.34 -5 109 C-5.1157509 95.37887446 -5.20464316 81.75786555 -5.25906086 68.13634872 C-5.28517613 61.81158857 -5.32061049 55.48716441 -5.37719727 49.16259766 C-5.43144656 43.06123799 -5.46140598 36.96020188 -5.47438622 30.85861969 C-5.48363871 28.52852533 -5.50170635 26.19844907 -5.52865028 23.86849213 C-5.56484515 20.6095272 -5.56994917 17.35190638 -5.56762695 14.09277344 C-5.58560333 13.125327 -5.60357971 12.15788055 -5.62210083 11.16111755 C-5.57131685 4.5927956 -5.57131685 4.5927956 -2.46452332 1.36920166 C-1.65123062 0.91736511 -0.83793793 0.46552856 0 0 Z " fill="#FDAB26" transform="translate(477,136)"/>
<path d="M0 0 C4.30764815 1.56641751 8.06171464 3.68336156 12 6 C11.34 6.33 10.68 6.66 10 7 C10 52.54 10 98.08 10 145 C-10.13 145 -30.26 145 -51 145 C-51 144.67 -51 144.34 -51 144 C-31.2 144 -11.4 144 9 144 C9 98.46 9 52.92 9 6 C7.02 5.67 5.04 5.34 3 5 C3 4.34 3 3.68 3 3 C2.01 2.67 1.02 2.34 0 2 C0 1.34 0 0.68 0 0 Z " fill="#7093D7" transform="translate(267,240)"/>
<path d="M0 0 C1.485 0.99 1.485 0.99 3 2 C3.37358761 4.99526119 3.37358761 4.99526119 3.37181091 8.92405701 C3.37563548 9.64487695 3.37946004 10.3656969 3.3834005 11.10835987 C3.39272516 13.53654512 3.38066927 15.96416603 3.36889648 18.39233398 C3.37136318 20.12845599 3.37520026 21.86457651 3.38031006 23.60069275 C3.38866632 27.34721762 3.38782473 31.0935906 3.38012505 34.8401165 C3.36856094 40.77044094 3.38069102 46.70056932 3.39674377 52.63087463 C3.43297945 67.36964724 3.43917394 82.10841593 3.43664551 96.847229 C3.43493225 108.28438781 3.44213353 119.72138692 3.47662407 131.15850121 C3.49337821 137.04639325 3.4916562 142.93389556 3.47580135 148.82178581 C3.46997975 152.49891067 3.48078969 156.17585327 3.49604797 159.85294533 C3.49975608 161.54957367 3.49671896 163.2462333 3.48617744 164.94283295 C3.43206481 174.27976644 3.87695322 182.39784149 8 191 C7.01 191.33 6.02 191.66 5 192 C2.51023182 186.89527312 1.62264446 183.17922714 1.60800171 177.40306091 C1.60206045 176.67035746 1.59611919 175.93765401 1.58999789 175.18274742 C1.5737779 172.74463961 1.57864368 170.30704634 1.58349609 167.86889648 C1.57611172 166.11406882 1.56740537 164.35924629 1.55747986 162.60443115 C1.53419415 157.8504353 1.52900944 153.09657011 1.52682066 148.34252429 C1.52115134 143.36315731 1.49787189 138.3838749 1.47622681 133.40455627 C1.4377231 123.97359342 1.41349271 114.54265483 1.39510214 105.11163336 C1.3616916 88.21994818 1.30391294 71.32833617 1.24111044 54.4367376 C1.21963829 48.50995135 1.2043573 42.58319011 1.19427085 36.65637386 C1.18724621 32.96972277 1.17636515 29.28308959 1.16462898 25.59645081 C1.16007664 23.88804557 1.15722471 22.17963483 1.15620613 20.47122383 C1.15462995 18.13743087 1.14703639 15.80372984 1.13803101 13.46995544 C1.13547491 12.16457038 1.13291882 10.85918531 1.13028526 9.51424313 C1.00927925 6.25029332 0.6212147 3.20248775 0 0 Z " fill="#EAFDFE" transform="translate(192,184)"/>
<path d="M0 0 C2 1 2 1 3.0625 3.125 C5.71064292 11.24597162 5.38942618 20.06006348 5.51489258 28.52441406 C5.54663833 30.17519303 5.59450355 31.82574043 5.65844727 33.47558594 C6.17877016 47.13168452 6.17877016 47.13168452 3.28466797 51.71875 C1.23236742 53.61361509 -0.40314481 54.97216302 -3 56 C-3.99 55.67 -4.98 55.34 -6 55 C-5.67 53.35 -5.34 51.7 -5 50 C-3.35 50.33 -1.7 50.66 0 51 C2.62119433 47.08200427 2.34937956 42.83573408 2.4140625 38.296875 C2.43342865 37.45908508 2.4527948 36.62129517 2.4727478 35.75811768 C2.53240724 33.08884787 2.57887413 30.41953461 2.625 27.75 C2.66319236 25.93748146 2.70224482 24.12498082 2.7421875 22.3125 C2.83809752 17.87514585 2.9221788 13.43770675 3 9 C2.34 9 1.68 9 1 9 C0.67 6.03 0.34 3.06 0 0 Z " fill="#ECC540" transform="translate(550,135)"/>
<path d="M0 0 C1 3 1 3 -0.3125 5.8125 C-0.869375 6.864375 -1.42625 7.91625 -2 9 C-4.07570361 14.06400508 -4.33527105 18.55451376 -4.37109375 23.94140625 C-4.38012222 24.78670395 -4.3891507 25.63200165 -4.39845276 26.50291443 C-4.41290198 28.28209924 -4.42182868 30.06133655 -4.42553711 31.84057617 C-4.43748037 34.55803359 -4.48675395 37.27325219 -4.53710938 39.99023438 C-4.54656965 41.72394731 -4.55380658 43.45767411 -4.55859375 45.19140625 C-4.57812607 45.99985489 -4.59765839 46.80830353 -4.61778259 47.64125061 C-4.58366171 51.91393725 -4.44123621 53.47580012 -1.59008789 56.86303711 C-0.73535889 57.56823486 0.11937012 58.27343262 1 59 C1.66 59.99 2.32 60.98 3 62 C-0.82860518 60.3802055 -4.36729983 58.24644635 -7 55 C-7.84134723 52.10088012 -7.77269909 49.33348611 -7.69140625 46.33203125 C-7.69003159 45.49717697 -7.68865692 44.66232269 -7.6872406 43.8021698 C-7.67819679 42.03782342 -7.65460698 40.27349936 -7.61743164 38.50952148 C-7.56302232 35.83814463 -7.55590056 33.16991756 -7.55664062 30.49804688 C-7.48654174 19.23527309 -7.06702978 9.26024591 0 0 Z " fill="#B24751" transform="translate(202,130)"/>
<path d="M0 0 C0.66 0.33 1.32 0.66 2 1 C1.59007812 1.45890625 1.18015625 1.9178125 0.7578125 2.390625 C0.21898437 3.00421875 -0.31984375 3.6178125 -0.875 4.25 C-1.40867187 4.85328125 -1.94234375 5.4565625 -2.4921875 6.078125 C-4.07239902 7.95137424 -4.07239902 7.95137424 -5.0546875 10.18359375 C-6 12 -6 12 -8.25 12.8125 C-11.25129917 14.10851555 -12.00029069 15.08781511 -13.9375 17.625 C-16.59678805 20.93021332 -16.59678805 20.93021332 -20.25 21.5625 C-23 21 -23 21 -25 19 C-21.5835227 16.39558482 -18.16678518 13.79151125 -14.75 11.1875 C-13.78191406 10.44951172 -12.81382812 9.71152344 -11.81640625 8.95117188 C-10.41455078 7.88286133 -10.41455078 7.88286133 -8.984375 6.79296875 C-7.69611816 5.81106567 -7.69611816 5.81106567 -6.38183594 4.80932617 C-4.26061004 3.19796853 -2.13314003 1.59553693 0 0 Z " fill="#DD4B36" transform="translate(409,187)"/>
<path d="M0 0 C1.32 0 2.64 0 4 0 C5.125 3.75 5.125 3.75 4 6 C3.39671875 5.79503906 2.7934375 5.59007813 2.171875 5.37890625 C1.37265625 5.10949219 0.5734375 4.84007813 -0.25 4.5625 C-1.03890625 4.29566406 -1.8278125 4.02882813 -2.640625 3.75390625 C-11.97055613 0.77265342 -22.00129874 0.89321016 -31 5 C-33.25635483 6.45375882 -35.33535107 7.98936707 -37.40625 9.6953125 C-39 11 -39 11 -41 12 C-40.67 9.69 -40.34 7.38 -40 5 C-27.80101991 -0.17532489 -13.08235873 -3.07820206 0 0 Z " fill="#FDF3F0" transform="translate(247,114)"/>
<path d="M0 0 C2.0625 0.4375 2.0625 0.4375 4 1 C-6.86208277 9.52953816 -17.80612541 17.91003164 -29 26 C-29.33 24.68 -29.66 23.36 -30 22 C-24.25 18 -24.25 18 -22 18 C-21.67 17.01 -21.34 16.02 -21 15 C-19.34302621 14.30959426 -17.6744239 13.6469365 -16 13 C-14.32576317 11.67618483 -12.65788785 10.34423339 -11 9 C-10.34 9 -9.68 9 -9 9 C-9 8.01 -9 7.02 -9 6 C-7.28515625 4.6484375 -7.28515625 4.6484375 -5.0625 3.375 C-2.368706 1.90109358 -2.368706 1.90109358 0 0 Z " fill="#FEE5DD" transform="translate(433,166)"/>
<path d="M0 0 C0 0.99 0 1.98 0 3 C-1.32 3 -2.64 3 -4 3 C-3.814375 3.78375 -3.62875 4.5675 -3.4375 5.375 C-3 8 -3 8 -4 10 C-5.32 10 -6.64 10 -8 10 C-7.67 10.99 -7.34 11.98 -7 13 C-8.03125 12.896875 -9.0625 12.79375 -10.125 12.6875 C-14.07242766 13.00584094 -14.51860374 13.09155257 -17.1875 15.5625 C-18.115625 16.366875 -19.04375 17.17125 -20 18 C-22.17578125 17.65234375 -22.17578125 17.65234375 -24 17 C-22.42040347 15.70376621 -20.83616587 14.41318673 -19.25 13.125 C-18.36828125 12.40570313 -17.4865625 11.68640625 -16.578125 10.9453125 C-14.40381952 9.30470018 -12.42280774 8.18815731 -10 7 C-8.31288577 5.3540349 -6.6454378 3.68762851 -5 2 C-2 0 -2 0 0 0 Z " fill="#3EA546" transform="translate(543,194)"/>
<path d="M0 0 C0.99 0.33 1.98 0.66 3 1 C1.8553125 2.423125 1.8553125 2.423125 0.6875 3.875 C-6.51786938 14.23652414 -5.53988768 26.52928526 -5.6875 38.625 C-5.7207226 40.5065335 -5.75521671 42.388045 -5.79101562 44.26953125 C-5.87535375 48.84623188 -5.94242826 53.42288762 -6 58 C-8.74325782 53.99427405 -8.25301454 49.73133001 -8.1953125 45.078125 C-8.1924826 44.21813904 -8.18965271 43.35815308 -8.18673706 42.47210693 C-8.1755615 39.73126179 -8.15046179 36.99074602 -8.125 34.25 C-8.1149668 32.38932764 -8.10584155 30.52865015 -8.09765625 28.66796875 C-8.07563076 24.11185268 -8.04111897 19.55598214 -8 15 C-7.34 15 -6.68 15 -6 15 C-5.87625 14.319375 -5.7525 13.63875 -5.625 12.9375 C-4.90899123 9.5722588 -3.97054875 6.29986575 -3 3 C-2.34 3 -1.68 3 -1 3 C-0.67 2.01 -0.34 1.02 0 0 Z " fill="#FEEAE9" transform="translate(201,128)"/>
<path d="M0 0 C0.495 1.485 0.495 1.485 1 3 C-0.258125 2.67 -1.51625 2.34 -2.8125 2 C-11.2837488 0.1543831 -18.72203047 0.47395874 -26.90625 3.34375 C-29 4 -29 4 -32 4 C-30.68 3.34 -29.36 2.68 -28 2 C-28 1.01 -28 0.02 -28 -1 C-19.14918579 -2.68586937 -8.40112097 -3.71212322 0 0 Z " fill="#FEF6D0" transform="translate(531,115)"/>
<path d="M0 0 C1.7541123 1.07666203 3.50312587 2.16163339 5.25 3.25 C6.71179688 4.15492188 6.71179688 4.15492188 8.203125 5.078125 C10.79705245 6.86054442 12.86377619 8.70101628 15 11 C13.68 11 12.36 11 11 11 C11 10.34 11 9.68 11 9 C10.29875 9.20625 9.5975 9.4125 8.875 9.625 C5.31954709 10.08875473 3.26948317 9.42151442 0 8 C-1.875 6.5 -1.875 6.5 -3 5 C-3 3 -3 3 -1.5 1.375 C-1.005 0.92125 -0.51 0.4675 0 0 Z " fill="#E24636" transform="translate(310,165)"/>
<path d="M0 0 C0.66 0.33 1.32 0.66 2 1 C1.01 2.485 1.01 2.485 0 4 C1.32 4 2.64 4 4 4 C4 4.66 4 5.32 4 6 C1.69 6 -0.62 6 -3 6 C-3.33 6.66 -3.66 7.32 -4 8 C-6.90303086 9.88304704 -9.88941471 11.49183744 -13 13 C-14.546875 13.8353125 -14.546875 13.8353125 -16.125 14.6875 C-17.07375 15.120625 -18.0225 15.55375 -19 16 C-19.66 15.67 -20.32 15.34 -21 15 C-18.69602701 12.28944354 -15.99163434 10.86738011 -12.90234375 9.17578125 C-10.22766682 7.52264417 -7.9831955 5.49287222 -5.67578125 3.3671875 C-3.85531436 1.8819581 -2.18567817 0.86358771 0 0 Z " fill="#EFC335" transform="translate(502,118)"/>
<path d="M0 0 C0.99 0.33 1.98 0.66 3 1 C0.1476733 3.23152884 -2.70719509 5.45978354 -5.5625 7.6875 C-6.36236328 8.31333984 -7.16222656 8.93917969 -7.98632812 9.58398438 C-10.31605428 11.40021986 -12.65500097 13.20353876 -15 15 C-16.01731201 15.78721436 -16.01731201 15.78721436 -17.05517578 16.59033203 C-18.65653603 17.79208679 -20.32340823 18.90564669 -22 20 C-25.94255233 19.2831723 -27.11360559 17.88639441 -30 15 C-25.545 15.99 -25.545 15.99 -21 17 C-21 16.34 -21 15.68 -21 15 C-20.195625 14.731875 -19.39125 14.46375 -18.5625 14.1875 C-17.716875 13.795625 -16.87125 13.40375 -16 13 C-15.67 12.01 -15.34 11.02 -15 10 C-13.68 10 -12.36 10 -11 10 C-11 9.34 -11 8.68 -11 8 C-10.01 7.67 -9.02 7.34 -8 7 C-7.484375 6.484375 -6.96875 5.96875 -6.4375 5.4375 C-5.963125 4.963125 -5.48875 4.48875 -5 4 C-4.34 4 -3.68 4 -3 4 C-3 3.34 -3 2.68 -3 2 C-2.01 1.34 -1.02 0.68 0 0 Z " fill="#D35851" transform="translate(398,299)"/>
<path d="M0 0 C2.48656083 10.88255821 2.22923306 21.6540956 2.125 32.75 C2.11494733 34.62239103 2.10582554 36.4947873 2.09765625 38.3671875 C2.07583038 42.9115899 2.04142737 47.45573575 2 52 C1.67 52 1.34 52 1 52 C0.98018066 50.95658447 0.96036133 49.91316895 0.93994141 48.83813477 C0.86329047 44.9297054 0.77467 41.02161981 0.68261719 37.11352539 C0.64457123 35.42902463 0.60967801 33.74444935 0.578125 32.05981445 C0.53193934 29.62424256 0.47404006 27.18917308 0.4140625 24.75390625 C0.40251129 24.01290176 0.39096008 23.27189728 0.37905884 22.50843811 C0.17208067 15.00765629 -1.46713279 8.05584438 -4 1 C-2 0 -2 0 0 0 Z " fill="#FFFCC7" transform="translate(554,132)"/>
<path d="M0 0 C0.66 0.33 1.32 0.66 2 1 C0.8125 3.5 0.8125 3.5 -1 6 C-3.6875 6.3125 -3.6875 6.3125 -6 6 C-6.2475 6.61875 -6.495 7.2375 -6.75 7.875 C-8.23740369 10.40358627 -9.43678009 10.71839004 -12 12 C-12.27585937 12.64453125 -12.55171875 13.2890625 -12.8359375 13.953125 C-14.37762231 16.66400701 -15.67544754 16.90727072 -18.625 17.75 C-19.85089844 18.11351562 -19.85089844 18.11351562 -21.1015625 18.484375 C-21.72804688 18.65453125 -22.35453125 18.8246875 -23 19 C-23 18.34 -23 17.68 -23 17 C-21.09375 15.484375 -21.09375 15.484375 -18.5 13.75 C-12.12810161 9.41494608 -5.98222083 4.86055443 0 0 Z " fill="#63A62E" transform="translate(517,212)"/>
<path d="M0 0 C3.67006974 0.98465286 6.44834975 2.20741644 9.4375 4.5 C11.89375799 6.37091366 13.8724799 7.4004655 16.875 8.125 C18.421875 8.558125 18.421875 8.558125 20 9 C21.04449911 12.13349732 20.93423645 12.98968256 20 16 C19.39414062 15.50371094 18.78828125 15.00742188 18.1640625 14.49609375 C12.86794613 10.20216555 7.48662728 6.16404519 1.8359375 2.34765625 C1.23007813 1.90292969 0.62421875 1.45820312 0 1 C0 0.67 0 0.34 0 0 Z " fill="#F9ECE7" transform="translate(251,120)"/>
<path d="M0 0 C1.423125 0.495 1.423125 0.495 2.875 1 C5.77062452 2.10159191 5.77062452 2.10159191 8 2 C8.33 3.65 8.66 5.3 9 7 C11.64 7 14.28 7 17 7 C17.33 9.31 17.66 11.62 18 14 C12.93448195 12.7041698 10.56424697 10.74702886 7 7 C6.113125 6.484375 5.22625 5.96875 4.3125 5.4375 C1.77448093 3.85981247 1.04366977 2.75149304 0 0 Z " fill="#AA3140" transform="translate(212,196)"/>
<path d="M0 0 C1.32 0 2.64 0 4 0 C4 0.66 4 1.32 4 2 C4.86625 2.185625 4.86625 2.185625 5.75 2.375 C8.02335767 3.00648824 9.9253529 3.88858191 12 5 C12 4.34 12 3.68 12 3 C13.32 3 14.64 3 16 3 C16 3.99 16 4.98 16 6 C15.01 6 14.02 6 13 6 C14.98 8.31 16.96 10.62 19 13 C15.52474027 13 14.95409678 12.4647013 12.3125 10.375 C11.61769531 9.83230469 10.92289063 9.28960937 10.20703125 8.73046875 C9.47871094 8.15941406 8.75039062 7.58835938 8 7 C5.82650513 5.39478732 3.64831748 3.79617108 1.46875 2.19921875 C0.9840625 1.80347656 0.499375 1.40773437 0 1 C0 0.67 0 0.34 0 0 Z " fill="#A92E44" transform="translate(236,215)"/>
<path d="M0 0 C-0.95745218 3.22052097 -1.5940664 4.71157349 -4.375 6.6875 C-5.90036426 7.45018213 -7.43757696 8.19143992 -9 8.875 C-11.2727004 10.01989407 -11.2727004 10.01989407 -13.5 12.6875 C-14.325 13.450625 -15.15 14.21375 -16 15 C-18.15625 14.64453125 -18.15625 14.64453125 -20 14 C-17.04777314 11.65885474 -14.08725012 9.32844546 -11.125 7 C-10.28324219 6.33226562 -9.44148438 5.66453125 -8.57421875 4.9765625 C-7.76855469 4.34492188 -6.96289062 3.71328125 -6.1328125 3.0625 C-5.38918457 2.47597656 -4.64555664 1.88945312 -3.87939453 1.28515625 C-2 0 -2 0 0 0 Z " fill="#FCE3D9" transform="translate(459,257)"/>
<path d="M0 0 C-1.75 1.125 -1.75 1.125 -4 2 C-5.35208914 1.37224433 -6.68340441 0.69914109 -8 0 C-15.02127055 -0.5479563 -22.05370627 -0.0896147 -29 1 C-29 0.34 -29 -0.32 -29 -1 C-19.19975141 -4.56372676 -9.64844222 -3.58614667 0 0 Z " fill="#B83D3F" transform="translate(248,118)"/>
<path d="M0 0 C0.33 0.99 0.66 1.98 1 3 C0.360625 3.37125 -0.27875 3.7425 -0.9375 4.125 C-3.56829331 5.73568978 -6.16661598 7.37732606 -8.75 9.0625 C-9.52859375 9.56910156 -10.3071875 10.07570313 -11.109375 10.59765625 C-13.12387331 11.87111586 -13.12387331 11.87111586 -14 14 C-15.65 14 -17.3 14 -19 14 C-15.4944222 10.35186636 -11.8750037 7.23059283 -7.8125 4.1875 C-6.24435547 3.00220703 -6.24435547 3.00220703 -4.64453125 1.79296875 C-2 0 -2 0 0 0 Z " fill="#FDE5DC" transform="translate(395,305)"/>
<path d="M0 0 C-0.33 1.32 -0.66 2.64 -1 4 C-0.34 4.33 0.32 4.66 1 5 C-1.66666667 5 -4.33333333 5 -7 5 C-10.16072105 6.25944653 -10.16072105 6.25944653 -12 9 C-11.34 9 -10.68 9 -10 9 C-10 9.66 -10 10.32 -10 11 C-12.64 11 -15.28 11 -18 11 C-16.33333333 9.33333333 -14.66666667 7.66666667 -13 6 C-12.53335937 5.484375 -12.06671875 4.96875 -11.5859375 4.4375 C-9.77703141 2.79790039 -8.23109608 2.12276104 -5.9375 1.3125 C-5.24527344 1.06113281 -4.55304688 0.80976563 -3.83984375 0.55078125 C-2 0 -2 0 0 0 Z " fill="#35A74F" transform="translate(500,229)"/>
<path d="M0 0 C-2.72837482 1.39806114 -5.48425404 2.63197105 -8.3125 3.8125 C-12.67365242 5.72591952 -16.22504818 8.10854754 -20 11 C-19.67 8.69 -19.34 6.38 -19 4 C-12.61355003 1.29059698 -6.98612233 -0.28514785 0 0 Z " fill="#FAE3E0" transform="translate(226,115)"/>
<path d="M0 0 C-1.0975223 2.99324263 -1.67682892 3.84610901 -4.625 5.25 C-5.800625 5.62125 -5.800625 5.62125 -7 6 C-7 6.66 -7 7.32 -7 8 C-10.37503669 6.8141763 -12.64722731 5.72426311 -15 3 C-13.63875 2.814375 -13.63875 2.814375 -12.25 2.625 C-9.11062733 2.17958129 -9.11062733 2.17958129 -6.9375 0.9375 C-4.52047954 -0.23202603 -2.65088143 -0.14727119 0 0 Z " fill="#E0493C" transform="translate(377,306)"/>
<path d="M0 0 C0.66 0.33 1.32 0.66 2 1 C-1.84115523 7.31046931 -1.84115523 7.31046931 -6 9 C-6.680625 9.556875 -7.36125 10.11375 -8.0625 10.6875 C-8.701875 11.120625 -9.34125 11.55375 -10 12 C-10.99 11.67 -11.98 11.34 -13 11 C-8.95058802 6.83489053 -4.83453262 3.22302175 0 0 Z " fill="#BC2D35" transform="translate(216,118)"/>
<path d="M0 0 C0.66 0.33 1.32 0.66 2 1 C-0.28712911 2.83925787 -2.57928535 4.67151494 -4.875 6.5 C-5.52597656 7.02464844 -6.17695313 7.54929687 -6.84765625 8.08984375 C-7.47285156 8.58613281 -8.09804688 9.08242188 -8.7421875 9.59375 C-9.3182373 10.05458984 -9.89428711 10.51542969 -10.48779297 10.99023438 C-12 12 -12 12 -14 12 C-13.67 10.68 -13.34 9.36 -13 8 C-12.01 8 -11.02 8 -10 8 C-10 7.01 -10 6.02 -10 5 C-9.01 5 -8.02 5 -7 5 C-7 4.34 -7 3.68 -7 3 C-4.66785852 1.79371992 -2.50357861 0.8345262 0 0 Z " fill="#DC4F49" transform="translate(447,263)"/>
<path d="M0 0 C0.66 0.33 1.32 0.66 2 1 C1.38511719 1.68835938 1.38511719 1.68835938 0.7578125 2.390625 C0.21898437 3.00421875 -0.31984375 3.6178125 -0.875 4.25 C-1.40867187 4.85328125 -1.94234375 5.4565625 -2.4921875 6.078125 C-3.9797487 7.97418746 -5.00322436 9.81290005 -6 12 C-8.31 11.67 -10.62 11.34 -13 11 C-9.0299782 6.78185183 -4.69159716 3.38772897 0 0 Z " fill="#DA564D" transform="translate(409,187)"/>
<path d="M0 0 C0.66 0.33 1.32 0.66 2 1 C1.67 3.97 1.34 6.94 1 10 C0.01 9.67 -0.98 9.34 -2 9 C-2.33 8.01 -2.66 7.02 -3 6 C-3.33 6.99 -3.66 7.98 -4 9 C-5.98 9 -7.96 9 -10 9 C-6.83047153 5.73991357 -3.60062011 2.77762123 0 0 Z " fill="#E35040" transform="translate(470,141)"/>
<path d="M0 0 C1.43931117 0.45261358 2.87638999 0.91232979 4.3125 1.375 C5.11300781 1.63023437 5.91351563 1.88546875 6.73828125 2.1484375 C9 3 9 3 12 5 C11.67 5.33 11.34 5.66 11 6 C11.99 6.33 12.98 6.66 14 7 C15.37195574 8.29355827 16.71182656 9.62298702 18 11 C17.67 11.99 17.34 12.98 17 14 C16.01 13.34 15.02 12.68 14 12 C14 11.34 14 10.68 14 10 C13.27425781 9.74347656 12.54851562 9.48695313 11.80078125 9.22265625 C8.86213848 7.93981777 6.6928577 6.42765977 4.1875 4.4375 C3.39730469 3.81746094 2.60710937 3.19742187 1.79296875 2.55859375 C0.90544922 1.78708984 0.90544922 1.78708984 0 1 C0 0.67 0 0.34 0 0 Z " fill="#D6554E" transform="translate(322,279)"/>
<path d="M0 0 C0.66 1.98 1.32 3.96 2 6 C2.66 6 3.32 6 4 6 C4.33 6.66 4.66 7.32 5 8 C6.65051288 9.11634152 6.65051288 9.11634152 8.5625 10.125 C9.696875 10.74375 10.83125 11.3625 12 12 C12 12.66 12 13.32 12 14 C5.41307758 10.95988196 -0.25864141 6.37159284 -6 2 C-2.25 0 -2.25 0 0 0 Z " fill="#DE5B4A" transform="translate(285,246)"/>
<path d="M0 0 C0.53109375 0.38414062 1.0621875 0.76828125 1.609375 1.1640625 C2.31578125 1.64617187 3.0221875 2.12828125 3.75 2.625 C4.44609375 3.11226562 5.1421875 3.59953125 5.859375 4.1015625 C7.97364505 5.27378239 7.97364505 5.27378239 10.0625 4.25 C10.701875 3.8375 11.34125 3.425 12 3 C14 2 16 1 18 0 C17.5625 2.3125 17.5625 2.3125 16 5 C13.09244107 6.36075884 10.10712212 7.21362959 7 8 C6.67 7.34 6.34 6.68 6 6 C5.360625 5.896875 4.72125 5.79375 4.0625 5.6875 C3.381875 5.460625 2.70125 5.23375 2 5 C0.75 2.4375 0.75 2.4375 0 0 Z " fill="#D35348" transform="translate(366,207)"/>
<path d="M0 0 C1.98 0 3.96 0 6 0 C2.50794062 3.59476701 -1.04033675 6.92026191 -5 10 C-5.66 10 -6.32 10 -7 10 C-7 8.68 -7 7.36 -7 6 C-5.68 6 -4.36 6 -3 6 C-3 4.68 -3 3.36 -3 2 C-2.01 2 -1.02 2 0 2 C0 1.34 0 0.68 0 0 Z " fill="#DBBD20" transform="translate(482,234)"/>
<path d="M0 0 C2.475 0.495 2.475 0.495 5 1 C5 1.66 5 2.32 5 3 C5.86625 3.37125 5.86625 3.37125 6.75 3.75 C9 5 9 5 10.8125 7 C13.64013127 9.58526288 16.31283434 10.14911562 20 11 C20.33 12.32 20.66 13.64 21 15 C14.92065017 12.85434712 10.51297097 9.51297097 6 5 C5.01 4.67 4.02 4.34 3 4 C3 3.34 3 2.68 3 2 C2.01 1.67 1.02 1.34 0 1 C0 0.67 0 0.34 0 0 Z " fill="#904067" transform="translate(256,230)"/>
<path d="M0 0 C2.475 0.495 2.475 0.495 5 1 C4.67 2.32 4.34 3.64 4 5 C6.475 5.99 6.475 5.99 9 7 C9 7.66 9 8.32 9 9 C11.31 9.33 13.62 9.66 16 10 C16 10.99 16 11.98 16 13 C10.02734138 11.78109008 6.1160026 9.54985152 2 5 C0.5625 2.125 0.5625 2.125 0 0 Z " fill="#5D8ADE" transform="translate(198,371)"/>
<path d="M0 0 C0.66 0.33 1.32 0.66 2 1 C-0.625 5.875 -0.625 5.875 -4 7 C-4.66 7.66 -5.32 8.32 -6 9 C-6.66 8.67 -7.32 8.34 -8 8 C-8 8.66 -8 9.32 -8 10 C-10.90567134 12.01782732 -13.51669784 13.35494404 -17 14 C-13.46843481 10.31118515 -9.81465908 7.22617756 -5.6875 4.1875 C-5.13771484 3.78080078 -4.58792969 3.37410156 -4.02148438 2.95507812 C-2.68374453 1.96631389 -1.34226377 0.98261415 0 0 Z " fill="#FDE0DA" transform="translate(429,278)"/>
<path d="M0 0 C0.66 0.66 1.32 1.32 2 2 C3.051875 2.99 3.051875 2.99 4.125 4 C6 6 6 6 6 8 C7.32 8.33 8.64 8.66 10 9 C10 9.66 10 10.32 10 11 C11.32 11.33 12.64 11.66 14 12 C12.34765625 12.765625 12.34765625 12.765625 10 13 C7.30859375 11.234375 7.30859375 11.234375 4.4375 8.75 C3.48746094 7.94046875 2.53742188 7.1309375 1.55859375 6.296875 C-0.35783252 4.57648012 -2.21363568 2.85252596 -4 1 C-2 0 -2 0 0 0 Z " fill="#CF5E53" transform="translate(310,266)"/>
<path d="M0 0 C0.66 1.32 1.32 2.64 2 4 C0.1875 4.60416667 -1.625 5.20833333 -3.4375 5.8125 C-6.10675947 6.86340264 -6.10675947 6.86340264 -8 9.0625 C-10.32902075 11.31873885 -11.82861733 11.64762415 -15 12 C-10.58990583 7.14889642 -5.41995647 3.651893 0 0 Z " fill="#D85450" transform="translate(431,171)"/>
<path d="M0 0 C3.75882385 2.1852029 7.29382893 4.57196155 10.8125 7.125 C12.27623047 8.18074219 12.27623047 8.18074219 13.76953125 9.2578125 C14.50558594 9.83273438 15.24164063 10.40765625 16 11 C16 11.33 16 11.66 16 12 C14.35 12 12.7 12 11 12 C10.67 11.01 10.34 10.02 10 9 C9.34 9 8.68 9 8 9 C8 8.34 8 7.68 8 7 C7.4225 6.71125 6.845 6.4225 6.25 6.125 C4.16666667 5.08333333 2.08333333 4.04166667 0 3 C0 2.01 0 1.02 0 0 Z " fill="#D45450" transform="translate(338,186)"/>
<path d="M0 0 C3.43752007 1.5277867 6.18953688 3.50181056 9 6 C9 6.66 9 7.32 9 8 C9.721875 8.2475 10.44375 8.495 11.1875 8.75 C14.24713266 10.10983674 16.4673738 11.82917754 19 14 C18.67 14.66 18.34 15.32 18 16 C17.34 15.67 16.68 15.34 16 15 C16 14.34 16 13.68 16 13 C14.02 12.34 12.04 11.68 10 11 C10 10.34 10 9.68 10 9 C9.34 9 8.68 9 8 9 C6.66666667 7.66666667 5.33333333 6.33333333 4 5 C3.01 4.67 2.02 4.34 1 4 C0.3125 1.9375 0.3125 1.9375 0 0 Z " fill="#6478D7" transform="translate(205,192)"/>
<path d="M0 0 C5.64913063 1.65707832 10.26300637 3.47762012 15 7 C14.67 8.32 14.34 9.64 14 11 C12.2267539 9.73253547 10.45649025 8.46089765 8.6875 7.1875 C7.70136719 6.47980469 6.71523438 5.77210938 5.69921875 5.04296875 C3.59942813 3.45369163 1.77965031 1.92542371 0 0 Z " fill="#FAE3D9" transform="translate(280,142)"/>
<path d="M0 0 C1.44098611 0.76429661 2.87766054 1.53672555 4.3125 2.3125 C5.11300781 2.74175781 5.91351563 3.17101562 6.73828125 3.61328125 C8.8592282 4.91368914 10.416779 6.08886267 12 8 C12 8.66 12 9.32 12 10 C13.32 10.33 14.64 10.66 16 11 C15.01 11.495 15.01 11.495 14 12 C12.29883624 11.05988318 10.63495707 10.05104383 9 9 C7.67391178 8.31903578 6.34313399 7.64669414 5 7 C5 6.34 5 5.68 5 5 C3.35 5 1.7 5 0 5 C0 3.35 0 1.7 0 0 Z " fill="#5C7BD1" transform="translate(247,224)"/>
<path d="M0 0 C-2.26756723 1.65050138 -4.53878961 3.29550028 -6.8125 4.9375 C-7.45509766 5.40607422 -8.09769531 5.87464844 -8.75976562 6.35742188 C-9.38173828 6.80537109 -10.00371094 7.25332031 -10.64453125 7.71484375 C-11.21534424 8.12855225 -11.78615723 8.54226074 -12.37426758 8.96850586 C-14 10 -14 10 -17 11 C-17 10.01 -17 9.02 -17 8 C-16.030625 7.731875 -15.06125 7.46375 -14.0625 7.1875 C-12.5465625 6.5996875 -12.5465625 6.5996875 -11 6 C-10.67 5.01 -10.34 4.02 -10 3 C-9.34 3 -8.68 3 -8 3 C-8 2.34 -8 1.68 -8 1 C-2.25 -1.125 -2.25 -1.125 0 0 Z " fill="#D2C228" transform="translate(534,201)"/>
<path d="M0 0 C0 7.59 0 15.18 0 23 C-0.33 23 -0.66 23 -1 23 C-1.33 17.06 -1.66 11.12 -2 5 C-3.32 4.67 -4.64 4.34 -6 4 C-1.125 0 -1.125 0 0 0 Z " fill="#4FA04A" transform="translate(554,185)"/>
<path d="M0 0 C0.66 0.33 1.32 0.66 2 1 C1.01 2.485 1.01 2.485 0 4 C1.32 4 2.64 4 4 4 C4 4.66 4 5.32 4 6 C1.69 6 -0.62 6 -3 6 C-3.33 6.66 -3.66 7.32 -4 8 C-5.32 7.67 -6.64 7.34 -8 7 C-7.34 7 -6.68 7 -6 7 C-6 5.68 -6 4.36 -6 3 C-4.03533587 1.93224776 -2.03144641 0.93446535 0 0 Z " fill="#F5C12A" transform="translate(502,118)"/>
<path d="M0 0 C2.8125 0.1875 2.8125 0.1875 6 1 C7.0064275 2.66279327 8.00585407 4.32983484 9 6 C11.28042794 7.30970524 13.50852521 8.10682979 16 9 C15.01 10.485 15.01 10.485 14 12 C9.03612328 8.24735246 4.26587874 4.54109672 0 0 Z " fill="#FCDCD3" transform="translate(305,160)"/>
<path d="M0 0 C3.53372712 1.96318174 6.24479785 4.04070881 9 7 C7.02 7.33 5.04 7.66 3 8 C2.67 6.68 2.34 5.36 2 4 C0.68 3.67 -0.64 3.34 -2 3 C-1.34 2.67 -0.68 2.34 0 2 C0 1.34 0 0.68 0 0 Z " fill="#E54E4C" transform="translate(325,176)"/>
<path d="M0 0 C1.48285242 0.95262034 2.96118201 1.91228405 4.4375 2.875 C5.67306641 3.67550781 5.67306641 3.67550781 6.93359375 4.4921875 C9 6 9 6 10 8 C8.68 8 7.36 8 6 8 C5.67 8.66 5.34 9.32 5 10 C4.34 10 3.68 10 3 10 C2.67 7.69 2.34 5.38 2 3 C1.34 3 0.68 3 0 3 C0 2.01 0 1.02 0 0 Z " fill="#5A7CDC" transform="translate(237,216)"/>
<path d="M0 0 C4.28477792 2.30718811 7.72291137 4.32966073 11 8 C9.68 8 8.36 8 7 8 C7 7.34 7 6.68 7 6 C6.236875 6.20625 5.47375 6.4125 4.6875 6.625 C2 7 2 7 -1 5 C-0.01 4.67 0.98 4.34 2 4 C2 3.34 2 2.68 2 2 C1.34 2 0.68 2 0 2 C0 1.34 0 0.68 0 0 Z " fill="#DC514A" transform="translate(314,168)"/>
<path d="M0 0 C3.465 1.98 3.465 1.98 7 4 C5.01388388 5.98611612 3.55856751 6.91454712 1 8 C0.01 8 -0.98 8 -2 8 C-2 7.01 -2 6.02 -2 5 C-1.34 4.67 -0.68 4.34 0 4 C0 2.68 0 1.36 0 0 Z " fill="#B93230" transform="translate(258,126)"/>
<path d="M0 0 C5.22861968 2.35287886 9.51750177 5.48453819 14 9 C11 10 11 10 8.875 9.1875 C7 8 7 8 6 6 C5.01 5.67 4.02 5.34 3 5 C1.3125 3.5625 1.3125 3.5625 0 2 C0 1.34 0 0.68 0 0 Z " fill="#FDE4D9" transform="translate(352,303)"/>
<path d="M0 0 C4.40824473 2.90299043 8.71640781 5.91581363 13 9 C12.01 9.495 12.01 9.495 11 10 C9.30094366 9.05607981 7.63978318 8.04349839 6 7 C4.00757511 5.9849911 2.00925805 4.98126556 0 4 C0 2.68 0 1.36 0 0 Z " fill="#FEE3DB" transform="translate(313,273)"/>
<path d="M0 0 C1 3 1 3 -0.25 5.75 C-0.8275 6.8225 -1.405 7.895 -2 9 C-3.03819584 11.31848219 -4.016201 13.65762143 -5 16 C-5.8852947 13.52455813 -6.09093521 12.28988738 -5.29296875 9.74609375 C-4.92816406 8.98425781 -4.56335938 8.22242188 -4.1875 7.4375 C-3.83042969 6.67308594 -3.47335938 5.90867188 -3.10546875 5.12109375 C-2 3 -2 3 0 0 Z " fill="#B43D40" transform="translate(202,130)"/>
<path d="M0 0 C1.32 0 2.64 0 4 0 C4 0.66 4 1.32 4 2 C4.5775 2.103125 5.155 2.20625 5.75 2.3125 C8.32049158 3.09792798 9.93657284 4.30504197 12 6 C11.67 6.99 11.34 7.98 11 9 C9.72689688 8.06558465 8.456612 7.12732889 7.1875 6.1875 C6.47980469 5.66542969 5.77210938 5.14335937 5.04296875 4.60546875 C3.21468607 3.16871123 1.60103312 1.68184237 0 0 Z " fill="#9A3658" transform="translate(236,215)"/>
<path d="M0 0 C0.66 0.33 1.32 0.66 2 1 C2 1.99 2 2.98 2 4 C2.66 4.33 3.32 4.66 4 5 C3 6 3 6 0.0625 6.1875 C-3 6 -3 6 -5 4 C-3.35 2.68 -1.7 1.36 0 0 Z " fill="#DF4E44" transform="translate(389,202)"/>
<path d="M0 0 C0.33 0 0.66 0 1 0 C2.42857143 8.57142857 2.42857143 8.57142857 0 12 C-0.99 12 -1.98 12 -3 12 C-2.01 8.04 -1.02 4.08 0 0 Z " fill="#E3FBE7" transform="translate(555,360)"/>
<path d="M0 0 C-0.21484375 1.890625 -0.21484375 1.890625 -1 4 C-3.06640625 5.046875 -3.06640625 5.046875 -5.5625 5.75 C-6.80193359 6.11351562 -6.80193359 6.11351562 -8.06640625 6.484375 C-9.02353516 6.73960937 -9.02353516 6.73960937 -10 7 C-10 6.34 -10 5.68 -10 5 C-8.3203125 3.7109375 -8.3203125 3.7109375 -6.125 2.375 C-5.40570313 1.92898437 -4.68640625 1.48296875 -3.9453125 1.0234375 C-2 0 -2 0 0 0 Z " fill="#57A037" transform="translate(504,224)"/>
<path d="M0 0 C3.74281699 2.38179263 6.97727468 4.74475735 10 8 C8.02 8.99 8.02 8.99 6 10 C5.938125 9.38125 5.87625 8.7625 5.8125 8.125 C5.171081 5.72238859 5.171081 5.72238859 2.4375 4.75 C1.633125 4.5025 0.82875 4.255 0 4 C0 2.68 0 1.36 0 0 Z " fill="#5B7BDC" transform="translate(226,208)"/>
<path d="M0 0 C0.66 0.33 1.32 0.66 2 1 C1.67 3.31 1.34 5.62 1 8 C0.01 8 -0.98 8 -2 8 C-2.33 7.34 -2.66 6.68 -3 6 C-3.99 5.67 -4.98 5.34 -6 5 C-4.02 3.35 -2.04 1.7 0 0 Z " fill="#DF564A" transform="translate(438,165)"/>
<path d="M0 0 C2.31 0.66 4.62 1.32 7 2 C7.33 3.32 7.66 4.64 8 6 C6.35 5.67 4.7 5.34 3 5 C3 4.34 3 3.68 3 3 C2.01 3 1.02 3 0 3 C0 2.01 0 1.02 0 0 Z " fill="#3988FA" transform="translate(240,229)"/>
<path d="M0 0 C-2.64 1.98 -5.28 3.96 -8 6 C-8.33 4.68 -8.66 3.36 -9 2 C-8.01 2 -7.02 2 -6 2 C-6 1.34 -6 0.68 -6 0 C-4 -1 -4 -1 0 0 Z " fill="#DA4E49" transform="translate(417,288)"/>
<path d="M0 0 C1.423125 0.495 1.423125 0.495 2.875 1 C5.77062452 2.10159191 5.77062452 2.10159191 8 2 C8.33 3.98 8.66 5.96 9 8 C1.28571429 4 1.28571429 4 0 0 Z " fill="#A1344E" transform="translate(212,196)"/>
<path d="M0 0 C-4.61012242 2.95047835 -7.36529617 4.5497272 -13 4 C-12.360625 3.71125 -11.72125 3.4225 -11.0625 3.125 C-8.84793921 2.17176549 -8.84793921 2.17176549 -8 0 C-4.71585695 -0.95067299 -3.30306592 -1.10102197 0 0 Z " fill="#4DA163" transform="translate(545,380)"/>
<path d="M0 0 C0.33 0 0.66 0 1 0 C1.03738281 0.91523438 1.07476562 1.83046875 1.11328125 2.7734375 C1.17902344 3.96195312 1.24476563 5.15046875 1.3125 6.375 C1.37050781 7.55835938 1.42851562 8.74171875 1.48828125 9.9609375 C1.65714844 10.96382813 1.82601562 11.96671875 2 13 C2.99 13.66 3.98 14.32 5 15 C4.34 15 3.68 15 3 15 C3 15.66 3 16.32 3 17 C2.01 16.67 1.02 16.34 0 16 C0 10.72 0 5.44 0 0 Z " fill="#4884E4" transform="translate(197,354)"/>
<path d="M0 0 C0.99 0.33 1.98 0.66 3 1 C1.54634731 2.17249353 0.08692581 3.33783816 -1.375 4.5 C-2.18710937 5.1496875 -2.99921875 5.799375 -3.8359375 6.46875 C-6 8 -6 8 -8 8 C-6.49860488 3.79609368 -3.82724957 2.10889262 0 0 Z " fill="#D8564F" transform="translate(425,279)"/>
<path d="M0 0 C3.94139078 1.66751148 6.7892812 4.22710649 10 7 C9.01 7.495 9.01 7.495 8 8 C7.01 7.67 6.02 7.34 5 7 C5 6.34 5 5.68 5 5 C4.01 5 3.02 5 2 5 C1.34 4.34 0.68 3.68 0 3 C0 2.01 0 1.02 0 0 Z " fill="#FDDEDB" transform="translate(302,265)"/>
<path d="M0 0 C4.30764815 1.56641751 8.06171464 3.68336156 12 6 C11.01 6.66 10.02 7.32 9 8 C9 7.34 9 6.68 9 6 C6.03 5.505 6.03 5.505 3 5 C3 4.34 3 3.68 3 3 C2.01 2.67 1.02 2.34 0 2 C0 1.34 0 0.68 0 0 Z " fill="#747BC6" transform="translate(267,240)"/>
<path d="M0 0 C0.66 0.33 1.32 0.66 2 1 C0.68 2.65 -0.64 4.3 -2 6 C-1.34 6 -0.68 6 0 6 C0 6.66 0 7.32 0 8 C-2.64 8 -5.28 8 -8 8 C-5.33333333 5.33333333 -2.66666667 2.66666667 0 0 Z " fill="#58A339" transform="translate(490,232)"/>
<path d="M0 0 C0.33 0.99 0.66 1.98 1 3 C-1.25 5.0625 -1.25 5.0625 -4 7 C-5.32 6.67 -6.64 6.34 -8 6 C-5.36 4.02 -2.72 2.04 0 0 Z " fill="#59A531" transform="translate(527,205)"/>
<path d="M0 0 C2.31 0.66 4.62 1.32 7 2 C7 3.32 7 4.64 7 6 C7.99 6.33 8.98 6.66 10 7 C10.6875 9.0625 10.6875 9.0625 11 11 C6.74828319 7.6381774 3.3618226 4.25171681 0 0 Z " fill="#FCF8C9" transform="translate(539,121)"/>
<path d="M0 0 C1.32 0 2.64 0 4 0 C3.67 1.65 3.34 3.3 3 5 C1.68 5 0.36 5 -1 5 C-0.67 3.35 -0.34 1.7 0 0 Z " fill="#E9C10F" transform="translate(545,185)"/>
<path d="M0 0 C4.81033104 2.54664585 8.32442148 4.99027798 12 9 C9.5 8 9.5 8 7 7 C6.113125 6.731875 5.22625 6.46375 4.3125 6.1875 C2 5 2 5 0.6875 2.375 C0.460625 1.59125 0.23375 0.8075 0 0 Z " fill="#D65955" transform="translate(298,156)"/>
<path d="M0 0 C6.875 3.75 6.875 3.75 8 6 C5.69 5.67 3.38 5.34 1 5 C0.67 3.35 0.34 1.7 0 0 Z " fill="#D75450" transform="translate(282,144)"/>
<path d="M0 0 C3.63 2.31 7.26 4.62 11 7 C8 8 8 8 4.375 6.875 C2.704375 5.946875 2.704375 5.946875 1 5 C0.67 3.35 0.34 1.7 0 0 Z " fill="#B63E40" transform="translate(265,131)"/>
<path d="M0 0 C0.33 0.66 0.66 1.32 1 2 C0.01 3.485 0.01 3.485 -1 5 C-1.66 5 -2.32 5 -3 5 C-3 5.66 -3 6.32 -3 7 C-4.65 7 -6.3 7 -8 7 C-5.42215154 4.35247996 -3.08351902 2.05567935 0 0 Z " fill="#FAE6DB" transform="translate(472,246)"/>
<path d="M0 0 C0.33 0.99 0.66 1.98 1 3 C-1.31 4.65 -3.62 6.3 -6 8 C-6 6.68 -6 5.36 -6 4 C-3 1.75 -3 1.75 0 0 Z " fill="#FDEDE4" transform="translate(409,184)"/>
<path d="M0 0 C0.66 0.33 1.32 0.66 2 1 C2 2.32 2 3.64 2 5 C-0.64 5.33 -3.28 5.66 -6 6 C-4 4 -2 2 0 0 Z " fill="#DE5049" transform="translate(453,154)"/>
<path d="M0 0 C0.66 0.33 1.32 0.66 2 1 C1 3 1 3 -1 6 C-4.125 6.1875 -4.125 6.1875 -7 6 C-2.25 1.125 -2.25 1.125 0 0 Z " fill="#DA554D" transform="translate(467,144)"/>
<path d="M0 0 C3.65316671 1.24976756 4.78065836 1.67098753 7 5 C5.35 5.33 3.7 5.66 2 6 C2 5.01 2 4.02 2 3 C1.34 3 0.68 3 0 3 C0 2.01 0 1.02 0 0 Z " fill="#FEECE8" transform="translate(281,250)"/>
<path d="M0 0 C1.32 0 2.64 0 4 0 C3.67 1.65 3.34 3.3 3 5 C1.68 4.67 0.36 4.34 -1 4 C-0.67 2.68 -0.34 1.36 0 0 Z " fill="#4883EA" transform="translate(249,231)"/>
<path d="M0 0 C0.33 2.64 0.66 5.28 1 8 C0.01 7.67 -0.98 7.34 -2 7 C-3.1875 3.9375 -3.1875 3.9375 -4 1 C-2 0 -2 0 0 0 Z " fill="#FEF8DD" transform="translate(554,132)"/>
<path d="M0 0 C1.95216435 1.95216435 2.84826645 3.53199953 4 6 C0.20411134 5.45773019 -1.47211993 3.79872437 -4 1 C-2 0 -2 0 0 0 Z " fill="#D3534E" transform="translate(310,266)"/>
<path d="M0 0 C0.33 0.66 0.66 1.32 1 2 C-0.75 4.0625 -0.75 4.0625 -3 6 C-4.32 5.67 -5.64 5.34 -7 5 C-4.69 3.35 -2.38 1.7 0 0 Z " fill="#D45E55" transform="translate(383,207)"/>
<path d="M0 0 C2.97 0.495 2.97 0.495 6 1 C6 1.66 6 2.32 6 3 C7.32 3.33 8.64 3.66 10 4 C9.67 4.66 9.34 5.32 9 6 C5.06326356 4.68775452 2.77280706 3.08089673 0 0 Z " fill="#FDD9D4" transform="translate(367,207)"/>
<path d="M0 0 C-2.64 1.65 -5.28 3.3 -8 5 C-8.33 4.01 -8.66 3.02 -9 2 C-4.5 -1.125 -4.5 -1.125 0 0 Z " fill="#FCE3DD" transform="translate(403,193)"/>
<path d="M0 0 C2 1 2 1 3.125 3.1875 C4.08328236 6.26769331 4.14915816 8.79309948 4 12 C3.67 11.01 3.34 10.02 3 9 C2.34 9 1.68 9 1 9 C0.67 6.03 0.34 3.06 0 0 Z " fill="#EDC83B" transform="translate(550,135)"/>
<path d="M0 0 C3.53586014 3.17320782 5.58578031 5.16743695 6 10 C5.54625 9.505 5.0925 9.01 4.625 8.5 C3.12364481 6.77390663 3.12364481 6.77390663 1 7 C0.67 4.69 0.34 2.38 0 0 Z " fill="#F0BF0D" transform="translate(545,129)"/>
<path d="M0 0 C2 0 2 0 3.3125 1.25 C4.1478125 2.11625 4.1478125 2.11625 5 3 C6.65533995 4.34736973 8.32012773 5.68334336 10 7 C8.35 7 6.7 7 5 7 C4.67 6.01 4.34 5.02 4 4 C3.01 3.67 2.02 3.34 1 3 C0.67 2.01 0.34 1.02 0 0 Z " fill="#FCE2DD" transform="translate(366,313)"/>
<path d="M0 0 C0.66 0 1.32 0 2 0 C2 0.99 2 1.98 2 3 C1.34 3 0.68 3 0 3 C0.33 5.31 0.66 7.62 1 10 C0.34 10 -0.32 10 -1 10 C-1.02689216 8.52093108 -1.04634621 7.04172517 -1.0625 5.5625 C-1.07410156 4.73878906 -1.08570313 3.91507813 -1.09765625 3.06640625 C-1 1 -1 1 0 0 Z " fill="#42A14F" transform="translate(475,244)"/>
<path d="M0 0 C0 0.99 0 1.98 0 3 C-1.32 3 -2.64 3 -4 3 C-4.33 3.99 -4.66 4.98 -5 6 C-6.32 5.67 -7.64 5.34 -9 5 C-7.87926138 4.16094435 -6.75325453 3.32892169 -5.625 2.5 C-4.99851562 2.0359375 -4.37203125 1.571875 -3.7265625 1.09375 C-2 0 -2 0 0 0 Z " fill="#66AA33" transform="translate(543,194)"/>
<path d="M0 0 C1.32 0 2.64 0 4 0 C4 0.66 4 1.32 4 2 C4.99 2 5.98 2 7 2 C7 2.66 7 3.32 7 4 C5.02 4.99 5.02 4.99 3 6 C3 5.01 3 4.02 3 3 C2.34 3 1.68 3 1 3 C0.67 2.01 0.34 1.02 0 0 Z " fill="#F2C108" transform="translate(530,194)"/>
<path d="M0 0 C0 3 0 3 -1.53125 4.60546875 C-2.1809375 5.12753906 -2.830625 5.64960938 -3.5 6.1875 C-4.1496875 6.71730469 -4.799375 7.24710938 -5.46875 7.79296875 C-5.9740625 8.19128906 -6.479375 8.58960938 -7 9 C-7.66 8.67 -8.32 8.34 -9 8 C-3.85714286 1.42857143 -3.85714286 1.42857143 0 0 Z " fill="#F4BD14" transform="translate(484,132)"/>
<path d="M0 0 C3.87302138 1.14430177 7.00263439 2.23320098 10 5 C10 5.66 10 6.32 10 7 C6.42032008 5.34784004 3.22017048 3.26875648 0 1 C0 0.67 0 0.34 0 0 Z " fill="#F9D2D0" transform="translate(251,120)"/>
<path d="M0 0 C0.66 0.33 1.32 0.66 2 1 C0.02 3.97 0.02 3.97 -2 7 C-2.66 6.34 -3.32 5.68 -4 5 C-4.66 4.67 -5.32 4.34 -6 4 C-4.02 2.68 -2.04 1.36 0 0 Z " fill="#BA3940" transform="translate(216,118)"/>
<path d="M0 0 C1 3 1 3 -0.125 5.625 C-2 8 -2 8 -4.6875 8.8125 C-5.450625 8.874375 -6.21375 8.93625 -7 9 C-5.625 7 -5.625 7 -4 5 C-3.34 5 -2.68 5 -2 5 C-1.34 3.35 -0.68 1.7 0 0 Z " fill="#CCF1D8" transform="translate(551,372)"/>
<path d="M0 0 C4.875 2.75 4.875 2.75 6 5 C4.35 4.67 2.7 4.34 1 4 C0.67 4.66 0.34 5.32 0 6 C-1.125 2.25 -1.125 2.25 0 0 Z " fill="#FBECE5" transform="translate(346,298)"/>
<path d="M0 0 C1.32 0 2.64 0 4 0 C4.66 1.65 5.32 3.3 6 5 C3.83125748 4.49396008 2.00032373 4.00016187 0 3 C0 2.01 0 1.02 0 0 Z " fill="#F43F39" transform="translate(344,195)"/>
<path d="M0 0 C1.65 0 3.3 0 5 0 C4.67 1.32 4.34 2.64 4 4 C2.68 4 1.36 4 0 4 C0 2.68 0 1.36 0 0 Z " fill="#C72410" transform="translate(201,184)"/>
<path d="M0 0 C1.32 0 2.64 0 4 0 C5.125 3.75 5.125 3.75 4 6 C3.01 5.67 2.02 5.34 1 5 C1 4.01 1 3.02 1 2 C0.34 1.67 -0.32 1.34 -1 1 C-0.67 0.67 -0.34 0.34 0 0 Z " fill="#F5F2EF" transform="translate(247,114)"/>
<path d="M0 0 C0.9075 0.37125 1.815 0.7425 2.75 1.125 C2.75 1.785 2.75 2.445 2.75 3.125 C-0.55 2.465 -3.85 1.805 -7.25 1.125 C-3.25 -0.875 -3.25 -0.875 0 0 Z " fill="#FBE0D9" transform="translate(245.25,114.875)"/>
<path d="M0 0 C0.99 0 1.98 0 3 0 C3.33 1.65 3.66 3.3 4 5 C2.68 5.33 1.36 5.66 0 6 C0 4.02 0 2.04 0 0 Z " fill="#3B89EB" transform="translate(205,370)"/>
<path d="M0 0 C0.86625 0.3403125 0.86625 0.3403125 1.75 0.6875 C0 2.25 0 2.25 -2.25 3.6875 C-4.5 3.375 -4.5 3.375 -6.25 2.6875 C-2.80384615 -0.38942308 -2.80384615 -0.38942308 0 0 Z " fill="#FDECE1" transform="translate(445.25,268.3125)"/>
<path d="M0 0 C0.99 0 1.98 0 3 0 C2.67 1.65 2.34 3.3 2 5 C0.35 4.67 -1.3 4.34 -3 4 C-1.6875 2 -1.6875 2 0 0 Z " fill="#F23D32" transform="translate(458,247)"/>
<path d="M0 0 C2.97 0.495 2.97 0.495 6 1 C4.3545622 2.68762851 2.68711423 4.3540349 1 6 C0.67 6 0.34 6 0 6 C0 4.02 0 2.04 0 0 Z " fill="#DC524C" transform="translate(466,245)"/>
<path d="M0 0 C2.31 0 4.62 0 7 0 C6.67 1.65 6.34 3.3 6 5 C2.83884224 3.63016497 2.0072908 3.0109362 0 0 Z " fill="#B12531" transform="translate(265,235)"/>
<path d="M0 0 C0.66 0 1.32 0 2 0 C2.33 1.32 2.66 2.64 3 4 C1.35 4.33 -0.3 4.66 -2 5 C-1.34 3.35 -0.68 1.7 0 0 Z " fill="#28AA5C" transform="translate(501,228)"/>
<path d="M0 0 C3.81684226 1.55500981 6.19195732 4.03595495 9 7 C8.236875 6.690625 7.47375 6.38125 6.6875 6.0625 C4.81210323 5.32106407 2.91315348 4.63771783 1 4 C0.3125 1.9375 0.3125 1.9375 0 0 Z " fill="#7365B3" transform="translate(205,192)"/>
<path d="M0 0 C2.97 0.99 5.94 1.98 9 3 C8.01 4.485 8.01 4.485 7 6 C5.83054208 5.19152271 4.66449539 4.37810888 3.5 3.5625 C2.8503125 3.11003906 2.200625 2.65757812 1.53125 2.19140625 C1.0259375 1.79824219 0.520625 1.40507812 0 1 C0 0.67 0 0.34 0 0 Z " fill="#FCE2DA" transform="translate(346,191)"/>
<path d="M0 0 C1.98 0 3.96 0 6 0 C4.3545622 1.68762851 2.68711423 3.3540349 1 5 C0.67 5 0.34 5 0 5 C0 3.35 0 1.7 0 0 Z " fill="#DEC317" transform="translate(539,191)"/>
<path d="M0 0 C2.31 0.66 4.62 1.32 7 2 C7.33 3.32 7.66 4.64 8 6 C4.63408134 4.55746343 2.48952921 2.66735273 0 0 Z " fill="#FDDFD3" transform="translate(338,185)"/>
<path d="M0 0 C6.875 3.75 6.875 3.75 8 6 C5.69 5.34 3.38 4.68 1 4 C0.67 2.68 0.34 1.36 0 0 Z " fill="#DC5856" transform="translate(290,150)"/>
<path d="M0 0 C-0.66 0 -1.32 0 -2 0 C-2.33 0.99 -2.66 1.98 -3 3 C-5.0625 4.1875 -5.0625 4.1875 -7 5 C-7 3.68 -7 2.36 -7 1 C-3.375 -1.125 -3.375 -1.125 0 0 Z " fill="#FEF8C7" transform="translate(498,121)"/>
<path d="M0 0 C1.32 0.33 2.64 0.66 4 1 C4 2.32 4 3.64 4 5 C2.68 4.34 1.36 3.68 0 3 C0 2.01 0 1.02 0 0 Z " fill="#DE4833" transform="translate(419,274)"/>
<path d="M0 0 C0.66 0.33 1.32 0.66 2 1 C1.375 2.9375 1.375 2.9375 0 5 C-3.125 5.75 -3.125 5.75 -6 6 C-4 4 -2 2 0 0 Z " fill="#FCDED3" transform="translate(437,272)"/>
<path d="M0 0 C0.99 0 1.98 0 3 0 C3 1.32 3 2.64 3 4 C2.34 4 1.68 4 1 4 C0.67 4.66 0.34 5.32 0 6 C-0.66 5.34 -1.32 4.68 -2 4 C-1.34 4 -0.68 4 0 4 C-0.33 3.01 -0.66 2.02 -1 1 C-0.67 0.67 -0.34 0.34 0 0 Z " fill="#DE4632" transform="translate(324,274)"/>
<path d="M0 0 C-0.66 1.98 -1.32 3.96 -2 6 C-2.99 5.34 -3.98 4.68 -5 4 C-5 3.34 -5 2.68 -5 2 C-2 0 -2 0 0 0 Z " fill="#4C81ED" transform="translate(231,216)"/>
<path d="M0 0 C6.875 3.75 6.875 3.75 8 6 C5.03 5.505 5.03 5.505 2 5 C2 4.01 2 3.02 2 2 C1.34 2 0.68 2 0 2 C0 1.34 0 0.68 0 0 Z " fill="#DC5957" transform="translate(354,198)"/>
<path d="M0 0 C1.32 0.33 2.64 0.66 4 1 C1.69 2.65 -0.62 4.3 -3 6 C-3.66 5.34 -4.32 4.68 -5 4 C-4.01 4 -3.02 4 -2 4 C-1.34 2.68 -0.68 1.36 0 0 Z " fill="#FEE2E6" transform="translate(468,140)"/>
</svg>
